<?xml version="1.0" standalone="no"?> <!DOCTYPE svg PUBLIC "-//W3C//DTD SVG 1.0//EN" "http://www.w3.org/TR/2001/REC-SVG-20010904/DTD/svg10.dtd" > <svg xmlns="http://www.w3.org/2000/svg" width="100%" height="100%">
<defs >
<font id="Garogier" horiz-adv-x="798" ><font-face
    font-family="Garogier"
    units-per-em="2048"
    panose-1="2 7 6 2 0 3 0 0 0 0"
    ascent="1550"
    descent="-600"
    alphabetic="0" />
<missing-glyph horiz-adv-x="748" d="M68 0V1365H612V0H68ZM136 68H544V1297H136V68Z" />
<glyph unicode=" " glyph-name="space" horiz-adv-x="500" />
<glyph unicode="!" glyph-name="exclam" horiz-adv-x="500" d="M225 300Q225 800 150 1300Q150 1400 250 1400T350 1300Q275 800 275 300H225ZM150 30T150 70T180 140T250 170T320 140T350 70T320 0T250 -30T180 0Z" />
<glyph unicode="&quot;" glyph-name="quotedbl" horiz-adv-x="650" d="M450 850Q375 1200 375 1300T475 1400T575 1300T500 850H450ZM150 850Q75 1200 75 1300T175 1400T275 1300T200 850H150Z" />
<glyph unicode="#" glyph-name="numbersign" horiz-adv-x="930" d="M375 850L295 450H545L625 850H375ZM155 0L215 300H75L95 450H245L325 850H180L210 1000H355L415 1300H465L405 1000H655L715 1300H765L705 1000H855L825 850H675L595 450H745L715 300H565L505
0H455L515 300H265L205 0H155Z" />
<glyph unicode="$" glyph-name="dollar" horiz-adv-x="1000" d="M235 247H277Q305 64 418 32T642 32T753 174T494 347T235 551T298 757T518 820Q637 820 698 792T802 764V587H760Q739 748 629 774T415 774T310 648T570 486T830 271T753 50T540 -20T341 16T235
52V247ZM380 -140V932H440V-140H380ZM570 -140V932H630V-140H570Z" />
<glyph unicode="%" glyph-name="percent" horiz-adv-x="1555" d="M250 -30L1320 1330H1420L350 -30H250ZM1100 157T1148 68T1280 -22T1412 67T1460 290T1412 512T1280 602T1148 513T1100 290ZM1010 146T1010 290T1088 534T1280 634T1471 534T1550 290T1472 46T1280
-54T1089 46ZM190 857T238 768T370 678T502 767T550 990T502 1212T370 1302T238 1213T190 990ZM100 846T100 990T178 1234T370 1334T561 1234T640 990T562 746T370 646T179 746Z" />
<glyph unicode="&amp;" glyph-name="ampersand" horiz-adv-x="1650" d="M449 1290T400 1170T575 825Q750 980 710 1135T560 1290ZM475 725Q250 623 250 414Q250 270 325 185T600 100T975 225L475 725ZM1380 700Q1340 550 1100 300Q1350 70 1410 70T1530 120L1550
90Q1470 -30 1350 -30T1000 200Q750 -27 550 -28T225 85T100 400Q100 660 450 750Q200 1000 275 1165T550 1330T825 1165T600 800L1075 325Q1240 550 1280 700Q1300 770 1150 770V800Q1250 800 1300 795T1400 795T1550 800V770Q1400 770 1380 700Z" />
<glyph unicode="&apos;" glyph-name="quotesingle" horiz-adv-x="350" d="M150 850Q75 1200 75 1300T175 1400T275 1300T200 850H150Z" />
<glyph unicode="(" glyph-name="parenleft" horiz-adv-x="500" d="M500 1300Q180 950 180 450T500 -400H450Q50 -50 50 450T450 1300H500Z" />
<glyph unicode=")" glyph-name="parenright" horiz-adv-x="500" d="M0 1300H50Q450 950 450 450T50 -400H0Q320 -50 320 450T0 1300Z" />
<glyph unicode="*" glyph-name="asterisk" horiz-adv-x="749" d="M359 1002L339 1330H409L389 1001L664 1183L699 1123L404 975L699 828L664 767L389 949L409 620H339L359 949L85 767L50 828L345 975L50 1123L85 1183L359 1002Z" />
<glyph unicode="+" glyph-name="plus" horiz-adv-x="1200" d="M550 900H650V450H1100V350H650V-100H550V350H100V450H550V900Z" />
<glyph unicode="," glyph-name="comma" horiz-adv-x="440" d="M120 30T120 70T150 140T220 170T290 140T330 70T340 0T330 -75T270 -177T120 -280V-250Q220 -180 240 -145T270 -70T230 -30T150 0Z" />
<glyph unicode="-" glyph-name="hyphen" horiz-adv-x="700" d="M100 450H600V350H100V450Z" />
<glyph unicode="." glyph-name="period" horiz-adv-x="440" d="M120 30T120 70T150 140T220 170T290 140T320 70T290 0T220 -30T150 0Z" />
<glyph unicode="/" glyph-name="slash" horiz-adv-x="780" d="M0 -300L680 1400H780L100 -300H0Z" />
<glyph unicode="0" glyph-name="zero" horiz-adv-x="1000" d="M200 234T280 122T500 10T720 122T800 400T720 678T500 790T280 678T200 400ZM50 220T50 400T180 705T500 830T819 705T950 400T820 95T500 -30T181 95Z" />
<glyph unicode="1" glyph-name="one" horiz-adv-x="750" d="M300 700Q300 770 100 770V800Q238 800 306 795T443 795T650 800V770Q450 770 450 700V100Q450 30 650 30V0Q512 0 444 5T307 5T100 0V30Q300 30 300 100V700Z" />
<glyph unicode="2" glyph-name="two" horiz-adv-x="1000" d="M120 0V40Q440 300 535 400T630 590Q630 660 590 705T480 750Q390 750 317 717T200 575H170Q200 701 280 765T480 830Q610 830 695 783T780 610Q780 480 665 390T260 110H680Q780 110 795 160T850 280H880Q845
210 835 140T820 0H120Z" />
<glyph unicode="3" glyph-name="three" horiz-adv-x="1000" d="M100 -570V-520Q330 -510 520 -400T710 -80Q710 80 615 190T310 180L290 230Q550 380 600 475T605 660T440 750T180 570L150 580Q240 830 505 830T763 650T470 290Q630 330 750 240T870 0Q870 -250
645 -405T100 -570Z" />
<glyph unicode="4" glyph-name="four" horiz-adv-x="1000" d="M600 -390V0H50V80Q370 530 450 960H570Q360 400 90 80H600V630H750V80H950V0H750V-390H600Z" />
<glyph unicode="5" glyph-name="five" horiz-adv-x="1000" d="M210 420Q510 420 670 325T830 0Q830 -250 605 -405T60 -570V-520Q290 -510 480 -400T670 -80Q670 180 540 250T150 320L230 800H810V660H260L210 420Z" />
<glyph unicode="6" glyph-name="six" horiz-adv-x="1000" d="M500 -30Q310 -30 205 90T100 500Q100 800 350 1065T870 1400V1350Q690 1280 510 1125T260 650Q380 750 520 750Q700 750 800 650T900 375T800 85T500 -30ZM255 600Q250 500 250 400Q250 200 325 105T515
10T690 105T750 400T675 655T520 710Q380 710 255 600Z" />
<glyph unicode="7" glyph-name="seven" horiz-adv-x="1000" d="M330 -580H230L840 660H380Q260 660 210 655T120 525H80Q110 700 110 800H960L330 -580Z" />
<glyph unicode="8" glyph-name="eight" horiz-adv-x="1000" d="M700 -30T500 -30T200 55T100 320Q100 530 360 660Q150 800 150 1000Q150 1150 250 1241T505 1332Q650 1332 750 1265T850 1032Q850 860 590 700Q900 530 900 320Q900 140 800 55ZM250 550T250 350T311
80T500 10Q630 10 690 75T750 300Q750 480 400 630Q250 550 250 350ZM545 724Q730 860 730 1020T670 1235T500 1290Q380 1290 325 1220T270 1020T545 724Z" />
<glyph unicode="9" glyph-name="nine" horiz-adv-x="1000" d="M500 830Q690 830 795 710T900 300Q900 0 650 -265T130 -600V-550Q310 -480 490 -325T740 150Q620 50 480 50Q300 50 200 150T100 425T200 715T500 830ZM745 200Q750 300 750 400Q750 600 675 695T485
790T310 695T250 400T325 145T480 90Q620 90 745 200Z" />
<glyph unicode=":" glyph-name="colon" horiz-adv-x="440" d="M120 30T120 70T150 140T220 170T290 140T320 70T290 0T220 -30T150 0ZM120 690T120 730T150 800T220 830T290 800T320 730T290 660T220 630T150 660Z" />
<glyph unicode=";" glyph-name="semicolon" horiz-adv-x="440" d="M120 690T120 730T150 800T220 830T290 800T320 730T290 660T220 630T150 660ZM120 30T120 70T150 140T220 170T290 140T330 70T340 0T330 -75T270 -177T120 -280V-250Q220 -180 240 -145T270
-70T230 -30T150 0Z" />
<glyph unicode="&lt;" glyph-name="less" horiz-adv-x="1200" d="M1100 900V800L200 400L1100 0V-100L100 350V450L1100 900Z" />
<glyph unicode="=" glyph-name="equal" horiz-adv-x="1400" d="M100 650H1300V570H100V650ZM100 230H1300V150H100V230Z" />
<glyph unicode="&gt;" glyph-name="greater" horiz-adv-x="1200" d="M100 900L1100 450V350L100 -100V0L1000 400L100 800V900Z" />
<glyph unicode="?" glyph-name="question" horiz-adv-x="900" d="M275 299Q200 700 220 725T300 750Q500 750 590 800T680 982Q680 1150 615 1225T432 1300Q350 1300 300 1250T175 1200T100 1300T300 1400Q770 1400 770 950Q770 600 400 600Q325 600 325 299H275ZM200
30T200 70T230 140T300 170T370 140T400 70T370 0T300 -30T230 0Z" />
<glyph unicode="@" glyph-name="at" horiz-adv-x="0" />
<glyph unicode="A" glyph-name="A" horiz-adv-x="1340" d="M811 610L595 1220L379 610H811ZM523 1120Q561 1210 573 1300L707 1316L713 1300L1150 100Q1170 30 1370 30V0Q1232 0 1164 5T1027 5T820 0V30Q1020 30 1000 95L825 570H365Q305 400 218 100Q190 30 390
30V0Q272 0 214 5T97 5T-80 0V30Q120 30 148 100Q240 300 523 1120Z" />
<glyph unicode="B" glyph-name="B" horiz-adv-x="1230" d="M400 725H540Q900 725 900 997T400 1265V725ZM400 40Q1000 40 1000 357T545 675H400V40ZM250 1200Q250 1270 50 1270V1300L270 1305Q1050 1350 1050 1000Q1050 725 710 700Q1150 675 1150 350Q1150 -50
350 -5L50 0V30Q250 30 250 100V1200Z" />
<glyph unicode="C" glyph-name="C" horiz-adv-x="1310" d="M1240 250Q1100 -30 750 -30Q410 -30 240 185T70 650T240 1115T750 1330Q920 1330 995 1290T1170 1250Q1170 1250 1210 1020H1160Q1050 1290 750 1290Q240 1290 240 650T750 10Q1080 10 1230 270L1240 250Z" />
<glyph unicode="D" glyph-name="D" horiz-adv-x="1430" d="M400 40Q1200 40 1200 650T400 1260V40ZM50 0V30Q250 30 250 100V1200Q250 1270 50 1270V1300Q550 1325 840 1275Q1350 1150 1350 650T840 25Q550 -25 50 0Z" />
<glyph unicode="E" glyph-name="E" horiz-adv-x="1280" d="M50 0V30Q250 30 250 100V1200Q250 1270 50 1270V1300Q212 1300 268 1295T381 1295T550 1300H1090Q1090 1200 1120 1055H1080Q1040 1180 990 1220T820 1260H400V700H800Q870 700 870 825H900Q900 750
895 713T895 638T900 525H870Q870 650 800 650H400V40H900Q1020 40 1070 95T1160 275H1200Q1170 100 1170 0H550Q438 0 382 5T269 5T50 0Z" />
<glyph unicode="F" glyph-name="F" horiz-adv-x="1120" d="M50 0V30Q250 30 250 100V1200Q250 1270 50 1270V1300Q212 1300 268 1295T381 1295T550 1300H1090Q1090 1200 1120 1055H1080Q1040 1180 990 1220T820 1260H400V700H800Q870 700 870 825H900Q900 750
895 713T895 638T900 525H870Q870 650 800 650H400V100Q400 30 600 30V0Q462 0 394 5T257 5T50 0Z" />
<glyph unicode="G" glyph-name="G" horiz-adv-x="1430" d="M1250 230Q1250 120 1079 45T730 -30Q390 -30 220 185T50 650T220 1115T730 1330Q900 1330 975 1290T1150 1250L1190 1020H1140Q1030 1290 730 1290Q220 1290 220 650T730 10Q900 10 1000 85T1100 290V470Q1100
540 860 540V570Q998 570 1066 565T1203 565T1410 570V540Q1250 540 1250 470V230Z" />
<glyph unicode="H" glyph-name="H" horiz-adv-x="1550" d="M250 1200Q250 1270 50 1270V1300Q188 1300 256 1295T394 1295T600 1300V1270Q400 1270 400 1200V700H1150V1200Q1150 1270 950 1270V1300Q1088 1300 1156 1295T1294 1295T1500 1300V1270Q1300 1270 1300
1200V100Q1300 30 1500 30V0Q1363 0 1294 5T1157 5T950 0V30Q1150 30 1150 100V650H400V100Q400 30 600 30V0Q463 0 394 5T257 5T50 0V30Q250 30 250 100V1200Z" />
<glyph unicode="I" glyph-name="I" horiz-adv-x="650" d="M250 1200Q250 1270 50 1270V1300Q188 1300 256 1295T393 1295T600 1300V1270Q400 1270 400 1200V100Q400 30 600 30V0Q462 0 394 5T257 5T50 0V30Q250 30 250 100V1200Z" />
<glyph unicode="J" glyph-name="glyph71" horiz-adv-x="625" d="M400 -150T275 -325T-25 -500T-200 -415T-135 -330T-35 -380T75 -430T200 -290T250 100V1200Q250 1270 50 1270V1300Q188 1300 256 1295T393 1295T600 1300V1270Q400 1270 400 1200V300Q400 -150 275 -325Z" />
<glyph unicode="K" glyph-name="K" horiz-adv-x="1430" d="M50 0V30Q250 30 250 100V1200Q250 1270 50 1270V1300Q188 1300 256 1295T393 1295T600 1300V1270Q400 1270 400 1200V670L996 1200Q1080 1270 880 1270V1300Q990 1300 1045 1295T1155 1295T1320 1300V1270Q1150
1270 1066 1200L526 714L1209 100Q1290 30 1430 30V0Q1298 0 1232 5T1099 5T900 0V30Q1100 30 1019 100L400 670V100Q400 30 600 30V0Q462 0 394 5T257 5T50 0Z" />
<glyph unicode="L" glyph-name="L" horiz-adv-x="1250" d="M50 0V30Q250 30 250 100V1200Q250 1270 50 1270V1300Q188 1300 256 1295T393 1295T600 1300V1270Q400 1270 400 1200V40H900Q1020 40 1070 95T1160 275H1200Q1170 100 1170 0H550Q438 0 382 5T269 5T50 0Z" />
<glyph unicode="M" glyph-name="M" horiz-adv-x="1830" d="M1230 0V30Q1430 30 1430 100V1200L1405 1149L960 0H880L320 1200V100Q320 30 520 30V0Q402 0 344 5T227 5T50 0V30Q250 30 250 100Q250 300 270 1200Q270 1270 70 1270V1300H450L980 170L1430 1300H1780V1270Q1580
1270 1580 1200V100Q1580 30 1780 30V0Q1642 0 1574 5T1437 5T1230 0Z" />
<glyph unicode="N" glyph-name="N" horiz-adv-x="1510" d="M1510 1300Q1510 1300 1510 1270Q1310 1270 1310 1200V0H1290L290 1100V100Q290 30 490 30V0Q355 0 313 5T228 5T50 0V30Q250 30 250 100V1089Q250 1250 50 1250V1300H361L1270 300V1200Q1270 1270 1070
1270V1300Q1205 1300 1247 1295T1332 1295T1510 1300Z" />
<glyph unicode="O" glyph-name="O" horiz-adv-x="1460" d="M430 -30T255 160T80 650T255 1140T730 1330T1205 1140T1380 650T1205 160T730 -30ZM955 20T1082 197T1210 647T1083 1100T730 1280T378 1100T250 648T377 198T730 20Z" />
<glyph unicode="P" glyph-name="P" horiz-adv-x="1180" d="M400 610Q950 611 950 938T400 1265V610ZM250 1200Q250 1270 50 1270V1300L300 1305Q1100 1350 1100 940T400 570V100Q400 30 600 30V0Q463 0 394 5T257 5T50 0V30Q250 30 250 100V1200Z" />
<glyph unicode="Q" glyph-name="Q" horiz-adv-x="1460" d="M730 -30Q681 -72 540 -130Q780 -210 945 -230T1360 -170V-220Q930 -360 688 -290T219 -220V-172Q515 -125 655 -30Q430 -30 255 160T80 650T255 1140T730 1330T1205 1140T1380 650T1205 160T730 -30ZM955
20T1082 197T1210 647T1083 1100T730 1280T378 1100T250 648T377 198T730 20Z" />
<glyph unicode="R" glyph-name="R" horiz-adv-x="1370" d="M250 1200Q250 1270 50 1270V1300L300 1305Q1100 1350 1100 950Q1100 650 810 590Q970 350 1087 200T1370 30V0Q1225 -10 1150 -10T953 145T660 575Q500 575 400 580V100Q400 30 600 30V0Q463 0 394 5T257
5T50 0V30Q250 30 250 100V1200ZM400 610Q950 611 950 938T400 1270V610Z" />
<glyph unicode="S" glyph-name="S" horiz-adv-x="1090" d="M120 410H180Q220 120 382 53T702 52T860 311T490 600T120 908T210 1224T525 1330Q695 1330 782 1280T930 1230V950H870Q840 1205 683 1260T376 1259T227 1029T598 757T970 432T859 88T556 -30T272 35T120
100V410Z" />
<glyph unicode="T" glyph-name="T" horiz-adv-x="1310" d="M380 0V30Q580 30 580 100V1260H330Q210 1260 160 1220T70 1055H30Q60 1200 60 1300H1250Q1250 1200 1280 1055H1240Q1200 1180 1150 1220T980 1260H730V100Q730 30 930 30V0Q792 0 724 5T587 5T380 0Z" />
<glyph unicode="U" glyph-name="U" horiz-adv-x="1420" d="M1120 1200Q1120 1270 920 1270V1300Q1038 1300 1096 1295T1213 1295T1390 1300V1270Q1190 1270 1190 1200V400Q1180 180 1050 75T720 -30T375 60T230 400V1200Q230 1270 30 1270V1300Q168 1300 236 1295T373
1295T580 1300V1270Q380 1270 380 1200V400Q380 200 477 115T750 30T1022 115T1120 400V1200Z" />
<glyph unicode="V" glyph-name="V" horiz-adv-x="1270" d="M-50 1271V1301Q112 1301 168 1296T281 1296T500 1301V1271Q303 1271 321 1206L710 195L925 731Q985 901 1072 1201Q1097 1271 900 1271V1301Q1042 1301 1088 1296T1181 1296T1370 1301V1271Q1167 1271
1142 1201Q1050 1001 742 181L666 0H632L170 1201Q153 1271 -50 1271Z" />
<glyph unicode="W" glyph-name="W" horiz-adv-x="1740" d="M873 601L645 1200Q623 1270 500 1270V1300Q600 1300 650 1295T750 1295T900 1300V1270Q773 1270 796 1200L948 803L1072 1200Q1097 1270 970 1270V1300Q1055 1300 1097 1295T1182 1295T1310 1300V1270Q1167
1270 1142 1200Q1050 1001 968 750L1180 195L1395 731Q1455 901 1542 1200Q1567 1270 1390 1270V1300Q1502 1300 1558 1295T1671 1295T1840 1300V1270Q1637 1270 1612 1200Q1520 1001 1212 180L1136 0H1102L890 557L742 180L666 0H632L175 1200Q153 1270 -50 1270V1300Q70
1300 130 1295T250 1295T430 1300V1270Q303 1270 326 1200L710 195L873 601Z" />
<glyph unicode="X" glyph-name="X" horiz-adv-x="1325" d="M722 730L1083 100Q1125 30 1325 30V0Q1165 0 1095 5T970 5T755 0V30Q955 30 913 100L634 588L330 100Q290 30 490 30V0Q352 0 304 5T212 5T30 0V30Q230 30 270 100L605 638L283 1200Q230 1270 30 1270V1300Q190
1300 245 1295T370 1295T600 1300V1270Q400 1270 453 1200L693 781L954 1200Q1000 1270 800 1270V1300Q938 1300 981 1295T1073 1295T1260 1300V1270Q1060 1270 1014 1200L722 730Z" />
<glyph unicode="Y" glyph-name="Y" horiz-adv-x="1240" d="M400 0V30Q600 30 600 100V590L201 1200Q150 1270 -50 1270V1300Q92 1300 163 1295T306 1295T520 1300V1270Q320 1270 371 1200L718 695L1034 1200Q1080 1270 880 1270V1300Q1018 1300 1061 1295T1153
1295T1340 1300V1270Q1140 1270 1094 1200L750 650V100Q750 30 950 30V0Q812 0 744 5T607 5T400 0Z" />
<glyph unicode="Z" glyph-name="Z" horiz-adv-x="1250" d="M270 40H870Q990 40 1045 95T1150 275H1190Q1140 100 1140 0H80V40L980 1260H310Q230 1260 200 1215T120 1080H80Q115 1170 132 1250T160 1400H190Q190 1300 260 1300H1170V1260L270 40Z" />
<glyph unicode="[" glyph-name="bracketleft" horiz-adv-x="470" d="M470 1300V1270Q200 1270 220 1200V-300Q220 -370 470 -370V-400H100V1300H470Z" />
<glyph unicode="\" glyph-name="backslash" horiz-adv-x="780" d="M680 -300L0 1400H100L780 -300H680Z" />
<glyph unicode="]" glyph-name="bracketright" horiz-adv-x="470" d="M0 1300H370V-400H0V-370Q250 -370 250 -300V1200Q270 1270 0 1270V1300Z" />
<glyph unicode="^" glyph-name="asciicircum" horiz-adv-x="900" d="M50 830L450 1330L850 830L810 800L450 1250L90 800L50 830Z" />
<glyph unicode="_" glyph-name="underscore" horiz-adv-x="1200" d="M0 -150H1200V-230H0V-150Z" />
<glyph unicode="`" glyph-name="grave" horiz-adv-x="500" d="M50 1280L180 1330L380 1000H330L50 1280Z" />
<glyph unicode="a" glyph-name="a" horiz-adv-x="820" d="M210 40T320 40T530 110V410Q210 280 210 160ZM80 -20T80 130T530 450V608Q530 770 400 770T225 630T130 490T80 540T205 710T430 830T590 766T650 614V70Q650 10 760 100L780 80Q727 -20 630 -20Q550
-20 530 70Q430 -20 271 -20Q80 -20 80 130Z" />
<glyph unicode="b" glyph-name="b" horiz-adv-x="990" d="M250 190Q250 130 325 70T515 10T705 120T780 370Q780 570 665 670T450 760T250 690V190ZM130 1170Q130 1240 83 1255T-20 1270V1300Q55 1310 112 1335T220 1400H250V730Q350 830 525 830T810 715T920
400T810 85T525 -30T230 40Q210 10 160 -30H130V1170Z" />
<glyph unicode="c" glyph-name="c" horiz-adv-x="870" d="M70 219T70 409T195 715T460 830Q630 830 705 760T735 650T625 700T480 790Q330 790 265 670T200 400T285 165T470 80Q620 80 790 250L820 230Q650 -30 440 -30Q290 -30 180 94Z" />
<glyph unicode="d" glyph-name="d" horiz-adv-x="1030" d="M210 230T325 130T540 40T740 110V580Q740 640 665 715T475 790T285 680T210 430Q210 230 325 130ZM70 200T70 400T180 715T465 830T740 730V1170Q740 1240 693 1255T590 1270V1300Q665 1310 722 1335T830
1400H860V140Q860 60 1010 60V30Q935 20 878 10T770 -30H740V70Q640 -30 465 -30T180 85Z" />
<glyph unicode="e" glyph-name="e" horiz-adv-x="910" d="M700 540Q700 640 637 715T490 790Q340 790 270 710T200 540H700ZM80 400Q80 600 210 715T470 830Q640 830 735 735T830 500H200Q200 280 285 185T470 90Q620 90 800 250L830 230Q660 -30 450 -30Q300
-30 190 94T80 400Z" />
<glyph unicode="f" glyph-name="f" horiz-adv-x="520" d="M170 730H20Q20 780 100 790T180 870Q180 1080 300 1240T545 1400T710 1370T750 1300T710 1240T615 1250T475 1290T340 1250T290 1030V800H490V730H290V100Q290 30 440 30V0Q335 0 283 5T178 5T20 0V30Q170
30 170 100V730Z" />
<glyph unicode="g" glyph-name="g" horiz-adv-x="920" d="M140 -370T245 -425T470 -480T715 -415T840 -235T701 -100T274 -80Q140 -150 140 -260ZM230 394T286 317T441 240T595 317T650 515Q650 637 595 713T440 790Q342 790 286 714T230 515Q230 394 286 317ZM20
-370T20 -260T250 -40Q70 30 70 115T320 220Q251 240 181 320T110 515Q110 647 206 738T440 830Q549 830 630 774Q745 730 870 770V660Q756 661 717 689Q769 616 770 515Q770 384 675 292T440 200Q180 200 180 120T475 40T845 -40T920 -235T793 -435T470 -520T148
-445Z" />
<glyph unicode="h" glyph-name="h" horiz-adv-x="1010" d="M170 1170Q170 1240 123 1255T20 1270V1300Q95 1310 152 1335T260 1400H290V640Q421 830 570 830Q670 830 755 765T840 550V100Q840 30 990 30V0Q885 0 833 5T728 5T570 0V30Q720 30 720 100V450Q720
630 661 680T490 730Q390 730 290 590V100Q290 30 440 30V0Q335 0 283 5T178 5T20 0V30Q170 30 170 100V1170Z" />
<glyph unicode="i" glyph-name="i" horiz-adv-x="480" d="M148 1235T174 1261T236 1288T297 1262T324 1200T298 1139T236 1112T175 1138T148 1200ZM310 100Q310 30 460 30V0Q355 0 303 5T198 5T40 0V30Q190 30 190 100V590Q190 630 150 647T40 670V700Q120 710
185 747T280 820H310V100Z" />
<glyph unicode="j" glyph-name="j" horiz-adv-x="435" d="M158 1235T184 1261T246 1288T307 1262T334 1200T308 1139T246 1112T185 1138T158 1200ZM200 590Q200 630 160 647T50 670V700Q130 710 195 747T290 820H320V100Q320 -300 35 -500L10 -475Q200 -300 200 100V590Z" />
<glyph unicode="k" glyph-name="k" horiz-adv-x="1060" d="M170 1170Q170 1240 123 1255T20 1270V1300Q95 1310 152 1335T260 1400H290V400L675 700Q770 770 620 770V800Q710 800 755 795T845 795T980 800V770Q830 770 735 700L480 500L835 100Q910 30 1060 30V0Q950
0 895 5T785 5T620 0V30Q770 30 695 100L400 436L290 350V100Q290 30 440 30V0Q335 0 283 5T178 5T20 0V30Q170 30 170 100V1170Z" />
<glyph unicode="l" glyph-name="l" horiz-adv-x="460" d="M170 1170Q170 1240 123 1255T20 1270V1300Q95 1310 152 1335T260 1400H290V100Q290 30 440 30V0Q335 0 283 5T178 5T20 0V30Q170 30 170 100V1170Z" />
<glyph unicode="m" glyph-name="m" horiz-adv-x="1590" d="M320 640Q451 830 600 830Q700 830 785 765Q845 719 863 630Q1001 830 1150 830Q1250 830 1335 765T1420 550V100Q1420 30 1570 30V0Q1465 0 1413 5T1308 5T1150 0V30Q1300 30 1300 100V450Q1300 636
1241 683T1070 730Q970 730 868 587Q870 570 870 550V100Q870 30 1020 30V0Q915 0 863 5T758 5T600 0V30Q750 30 750 100V450Q750 636 691 683T520 730Q420 730 320 590V100Q320 30 470 30V0Q365 0 313 5T208 5T50 0V30Q200 30 200 100V590Q200 630 160 647T50
670V700Q130 710 195 747T290 820H320V640Z" />
<glyph unicode="n" glyph-name="n" horiz-adv-x="1040" d="M320 640Q451 830 600 830Q700 830 785 765T870 550V100Q870 30 1020 30V0Q915 0 863 5T758 5T600 0V30Q750 30 750 100V450Q750 630 691 680T520 730Q420 730 320 590V100Q320 30 470 30V0Q365 0 313
5T208 5T50 0V30Q200 30 200 100V590Q200 630 160 647T50 670V700Q130 710 195 747T290 820H320V640Z" />
<glyph unicode="o" glyph-name="o" horiz-adv-x="1040" d="M205 234T295 122T520 10T745 122T835 400T745 678T520 790T295 678T205 400ZM70 220T70 400T200 705T520 830T840 705T970 400T840 95T520 -30T200 95Z" />
<glyph unicode="p" glyph-name="p" horiz-adv-x="1040" d="M300 730Q400 830 575 830T860 715T970 400T860 85T575 -30T300 40V-430Q300 -500 450 -500V-530Q345 -530 293 -525T188 -525T30 -530V-500Q180 -500 180 -430V590Q180 630 140 647T30 670V700Q110 710
175 747T270 820H300V730ZM300 190Q300 130 375 70T565 10T755 120T830 370Q830 570 715 670T500 760T300 690V190Z" />
<glyph unicode="q" glyph-name="q" horiz-adv-x="960" d="M210 230T325 130T540 40T740 110V610Q740 670 665 730T475 790T285 680T210 430Q210 230 325 130ZM70 200T70 400T180 715T465 830T760 760Q780 790 830 830H860V-430Q860 -500 1010 -500V-530Q905 -530
853 -525T748 -525T590 -530V-500Q740 -500 740 -430V-30V70Q640 -30 465 -30T180 85Z" />
<glyph unicode="r" glyph-name="r" horiz-adv-x="700" d="M190 590Q190 630 150 647T40 670V700Q120 710 185 747T280 820H310V590Q390 830 525 830T660 750T625 655T545 670T440 705T310 540V100Q310 30 460 30V0Q355 0 303 5T198 5T40 0V30Q190 30 190 100V590Z" />
<glyph unicode="s" glyph-name="s" horiz-adv-x="770" d="M100 30V260H140Q160 100 272 50Q340 20 400 20Q438 20 478 35Q570 70 570 182T335 357T100 560T165 760T370 820T560 790T650 760V580H610Q590 740 482 770Q446 780 375 780T288 775Q200 750 200 648T435
483T670 270T593 50T393 -20T205 5T100 30Z" />
<glyph unicode="t" glyph-name="t" horiz-adv-x="620" d="M20 730V780Q120 780 185 855T280 1050H320V800H550V730H320V153Q320 60 410 60T575 135L600 110Q510 -20 400 -20T240 30T190 203V730H20Z" />
<glyph unicode="u" glyph-name="u" horiz-adv-x="990" d="M150 610Q150 680 113 695T20 710V740Q95 750 137 765T240 820H270V350Q270 170 329 120T500 70Q600 70 700 210V610Q700 680 663 695T570 710V740Q645 750 687 765T790 820H820V140Q820 60 970 60V30Q895
20 838 10T730 -30H700V160Q569 -30 420 -30Q320 -30 235 35T150 250V610Z" />
<glyph unicode="v" glyph-name="v" horiz-adv-x="960" d="M149 700Q120 770 -30 770V800Q80 800 135 795T245 795T410 800V770Q260 770 289 700L537 137L764 700Q790 770 640 770V800Q728 800 771 795T858 795T990 800V770Q840 770 814 700L520 -30H470L149 700Z" />
<glyph unicode="w" glyph-name="w" horiz-adv-x="1410" d="M149 700Q120 770 -30 770V800Q66 800 114 795T211 795T355 800V770Q260 770 289 700L530 120L685 507L599 700Q570 770 475 770V800Q585 800 640 795T750 795T915 800V770Q710 770 739 700L987 137L1214
700Q1240 770 1035 770V800Q1136 800 1187 795T1288 795T1440 800V770Q1290 770 1264 700L970 -30H920L711 445L520 -30H470L149 700Z" />
<glyph unicode="x" glyph-name="x" horiz-adv-x="985" d="M223 700Q170 770 20 770V800Q130 800 185 795T295 795T460 800V770Q310 770 363 700L516 482L683 700Q740 770 590 770V800Q678 800 721 795T808 795T940 800V770Q790 770 733 700L541 448L786 100Q835
30 985 30V0Q875 0 820 5T710 5T545 0V30Q695 30 646 100L468 353L274 100Q226 37 341 31Q354 30 370 30V0Q282 0 239 5T152 5T20 0V30Q170 30 224 100L444 387L223 700Z" />
<glyph unicode="y" glyph-name="y" horiz-adv-x="960" d="M149 700Q120 770 -30 770V800Q80 800 135 795T245 795T410 800V770Q260 770 289 700L530 120L764 700Q790 770 640 770V800Q728 800 771 795T858 795T990 800V770Q840 770 814 700L390 -350Q345 -460
295 -480T200 -500Q160 -500 125 -475T115 -390T225 -357T372 -270L470 -30L149 700Z" />
<glyph unicode="z" glyph-name="z" horiz-adv-x="880" d="M50 0V40L690 760H150Q130 700 90 630H50Q85 700 102 765T130 900H170Q160 800 280 800H850V760L210 40H630Q730 40 750 80T810 190H850Q815 120 808 80T790 -30H760Q760 0 670 0H50Z" />
<glyph unicode="{" glyph-name="braceleft" horiz-adv-x="600" d="M600 1320V1280Q350 1240 415 875T150 450Q480 390 415 25T600 -380V-420Q200 -350 290 25T50 430V470Q380 500 290 875T600 1320Z" />
<glyph unicode="|" glyph-name="bar" horiz-adv-x="500" d="M200 -400V1550H300V-400H200Z" />
<glyph unicode="}" glyph-name="braceright" horiz-adv-x="600" d="M0 1320Q400 1250 310 875T550 470V430Q220 400 310 25T0 -420V-380Q250 -340 185 25T450 450Q120 510 185 875T0 1280V1320Z" />
<glyph unicode="~" glyph-name="asciitilde" horiz-adv-x="1400" d="M150 285L100 310Q260 510 450 510Q590 510 750 440T1010 370Q1100 370 1250 515L1300 490Q1140 290 950 290Q810 290 650 360T390 430Q300 430 150 285Z" />
<glyph unicode="&#xa0;" glyph-name="nbspace" horiz-adv-x="498" />
<glyph unicode="&#xa1;" glyph-name="exclamdown" horiz-adv-x="500" d="M275 550Q275 50 350 -450Q350 -550 250 -550T150 -450Q225 50 225 550H275ZM150 690T150 730T180 800T250 830T320 800T350 730T320 660T250 630T180 660Z" />
<glyph unicode="&#xa2;" glyph-name="cent" horiz-adv-x="636" />
<glyph unicode="&#xa3;" glyph-name="sterling" horiz-adv-x="636" />
<glyph unicode="&#xa5;" glyph-name="yen" horiz-adv-x="636" />
<glyph unicode="&#xa7;" glyph-name="section" horiz-adv-x="420" />
<glyph unicode="&#xa8;" glyph-name="dieresis" horiz-adv-x="500" d="M376 1185T402 1211T464 1238T525 1212T552 1150T526 1089T464 1062T403 1088T376 1150ZM-50 1185T-24 1211T38 1238T99 1212T126 1150T100 1089T38 1062T-23 1088T-50 1150Z" />
<glyph unicode="&#xa9;" glyph-name="copyright" horiz-adv-x="714" />
<glyph unicode="&#xaa;" glyph-name="ordfeminine" horiz-adv-x="402" />
<glyph unicode="&#xab;" glyph-name="guillemotleft" horiz-adv-x="540" />
<glyph unicode="&#xac;" glyph-name="logicalnot" horiz-adv-x="1395" />
<glyph unicode="&#xae;" glyph-name="registered" horiz-adv-x="747" />
<glyph unicode="&#xaf;" glyph-name="overscore" horiz-adv-x="500" d="M0 1200H500V1100H0V1200Z" />
<glyph unicode="&#xb0;" glyph-name="degree" horiz-adv-x="285" />
<glyph unicode="&#xb1;" glyph-name="plusminus" horiz-adv-x="636" />
<glyph unicode="&#xb4;" glyph-name="acute" horiz-adv-x="500" d="M480 1280L200 1000H150L350 1330L480 1280Z" />
<glyph unicode="&#xb5;" glyph-name="mu" horiz-adv-x="920" d="M650 800H770V170Q770 130 795 113T890 90V60Q810 50 760 28T680 -30H650V160Q540 -30 370 -30Q270 -30 150 100Q200 -250 200 -400Q200 -500 125 -500T50 -400Q50 -250 75 -75T100 200V800H220V250Q220
164 279 117T450 70Q550 70 650 210V800Z" />
<glyph unicode="&#xb6;" glyph-name="paragraph" horiz-adv-x="450" />
<glyph unicode="&#xb7;" glyph-name="middot" horiz-adv-x="207" />
<glyph unicode="&#xb8;" glyph-name="cedilla" horiz-adv-x="321" />
<glyph unicode="&#xba;" glyph-name="ordmasculine" horiz-adv-x="402" />
<glyph unicode="&#xbb;" glyph-name="guillemotright" horiz-adv-x="540" />
<glyph unicode="&#xbf;" glyph-name="questiondown" horiz-adv-x="900" d="M625 551Q700 150 680 125T600 100Q400 100 310 50T220 -132Q220 -300 285 -375T468 -450Q550 -450 600 -400T725 -350T800 -450T600 -550Q130 -550 130 -100Q130 250 500 250Q575 250
575 551H625ZM500 690T500 730T530 800T600 830T670 800T700 730T670 660T600 630T530 660Z" />
<glyph unicode="&#xc6;" glyph-name="AE" horiz-adv-x="1900" d="M670 0V30Q870 30 870 100V570H515Q419 400 263 100Q223 30 420 30V0Q302 0 244 5T127 5T-50 0V30Q153 30 193 100Q290 300 770 1120Q870 1270 670 1270V1300H1710Q1710 1200 1740 1055H1700Q1660
1180 1610 1220T1440 1260H1020V700H1420Q1490 700 1490 825H1520Q1520 750 1515 713T1515 638T1520 525H1490Q1490 650 1420 650H1020V40H1520Q1640 40 1690 95T1780 275H1820Q1790 100 1790 0H1170Q1058 0 1002 5T889 5T670 0ZM870 610V1220L530 610H870Z" />
<glyph unicode="&#xd8;" glyph-name="Oslash" horiz-adv-x="1540" d="M1350 1330L1420 1300L1258 1125Q1420 938 1420 650Q1420 350 1245 160T770 -30Q500 -30 332 123L190 -30L120 0L282 175Q120 362 120 650Q120 950 295 1140T770 1330Q1040 1330 1208 1177L1350
1330ZM995 20T1122 197T1250 648Q1250 867 1167 1027L410 208L418 198Q545 20 770 20ZM372 272L1129 1091L1122 1100Q995 1280 770 1280T418 1100T290 648Q290 429 372 272Z" />
<glyph unicode="&#xdf;" glyph-name="germandbls" horiz-adv-x="1020" d="M20 0V30Q170 30 170 100V730H20Q20 780 100 790T180 870Q180 1080 300 1240T560 1400T805 1265T910 945T705 765T500 658T735 483T970 270T893 50T693 -20T490 30L500 60Q600 18 691 18Q735
18 778 35Q870 70 870 182T635 357T400 560T465 760T660 810T795 950T710 1200T505 1300T340 1250T290 1030V100Q290 30 440 30V0Q335 0 283 5T178 5T20 0Z" />
<glyph unicode="&#xe6;" glyph-name="ae" horiz-adv-x="1320" d="M291 -20Q100 -20 100 130T550 450V608Q550 770 420 770T245 630T150 490T100 540T225 710T450 830T622 702Q740 830 890 830Q1060 830 1155 735T1250 500H670Q670 280 730 185T890 90Q1040 90
1220 250L1250 230Q1080 -30 870 -30Q720 -30 610 125Q450 -20 291 -20ZM1120 540Q1120 640 1057 720T910 800Q760 800 715 715T670 540H1120ZM230 280T230 160T340 40T595 150Q550 250 550 410Q230 280 230 160Z" />
<glyph unicode="&#xf8;" glyph-name="oslash" horiz-adv-x="1040" d="M787 617L291 122Q385 0 520 0T745 117T835 377T787 617ZM385 800T295 683T205 423T253 183L748 678Q655 800 520 800ZM70 0L182 113Q70 233 70 406T200 705T507 830T805 735L900 830L970 800L857
687Q970 567 970 394T840 95T532 -30T235 65L140 -30L70 0Z" />
<glyph unicode="&#xf9;" glyph-name="zero" horiz-adv-x="1000" d="M200 234T280 122T500 10T720 122T800 400T720 678T500 790T280 678T200 400ZM50 220T50 400T180 705T500 830T819 705T950 400T820 95T500 -30T181 95Z" />
<glyph unicode="&#x131;" glyph-name="dotlessi" horiz-adv-x="480" d="M310 100Q310 30 460 30V0Q355 0 303 5T198 5T40 0V30Q190 30 190 100V590Q190 630 150 647T40 670V700Q120 710 185 747T280 820H310V100Z" />
<glyph unicode="&#x152;" glyph-name="OE" horiz-adv-x="1960" d="M730 -20Q430 -20 255 165T80 650T255 1135T730 1320Q830 1320 917 1305T1061 1295T1230 1300H1770Q1770 1200 1800 1055H1760Q1720 1180 1670 1220T1500 1260H1080V700H1480Q1550 700 1550 825H1580Q1580
750 1575 713T1575 638T1580 525H1550Q1550 650 1480 650H1080V40H1580Q1700 40 1750 95T1840 275H1880Q1850 100 1850 0H1230Q1118 0 1062 5T918 -5T730 -20ZM930 80V1220Q855 1270 730 1270Q505 1270 378 1095T250 650Q250 375 377 203T730 30Q855 30 930 80Z"
/>
<glyph unicode="&#x153;" glyph-name="oe" horiz-adv-x="1610" d="M860 150Q710 -30 520 -30T200 95T70 400T200 705T520 830T860 650Q1010 830 1180 830T1445 735T1540 500H910Q910 280 995 185T1180 90Q1330 90 1510 250L1540 230Q1370 -30 1160 -30Q1010 -30
860 150ZM910 530H1410Q1410 640 1347 720T1200 800Q1050 800 980 715T910 530ZM205 234T295 117T520 0Q640 0 712 100T785 400T713 700T520 800Q385 800 295 683T205 400Z" />
<glyph unicode="&#x192;" glyph-name="florin" horiz-adv-x="576" />
<glyph unicode="&#x2c6;" glyph-name="circumflex" horiz-adv-x="500" d="M0 1000L200 1300H300L500 1000H450L250 1180L50 1000H0Z" />
<glyph unicode="&#x2c7;" glyph-name="caron" horiz-adv-x="500" d="M0 1300H50L250 1120L450 1300H500L300 1000H200L0 1300Z" />
<glyph unicode="&#x2d8;" glyph-name="breve" horiz-adv-x="500" d="M0 1300H50Q60 1200 115 1150T245 1100Q330 1100 385 1150T450 1300H500Q500 1150 425 1075T250 1000T75 1075T0 1300Z" />
<glyph unicode="&#x2d9;" glyph-name="dotaccent" horiz-adv-x="500" d="M163 1185T189 1211T251 1238T312 1212T339 1150T313 1089T251 1062T190 1088T163 1150Z" />
<glyph unicode="&#x2da;" glyph-name="ring" horiz-adv-x="500" d="M190 1000T145 1045T100 1150T145 1255T250 1300T355 1255T400 1150T355 1045T250 1000ZM162 1185T162 1150T188 1089T250 1062T311 1088T338 1150T312 1211T250 1238T189 1212Z" />
<glyph unicode="&#x2db;" glyph-name="ogonek" horiz-adv-x="270" />
<glyph unicode="&#x2dc;" glyph-name="tilde" horiz-adv-x="500" d="M5 1085L-20 1110Q50 1240 150 1240Q210 1240 280 1190T380 1140Q430 1140 495 1215L520 1190Q450 1060 350 1060Q290 1060 220 1110T120 1160Q70 1160 5 1085Z" />
<glyph unicode="&#x2dd;" glyph-name="hungarumlaut" horiz-adv-x="500" d="M630 1280L350 1000H300L500 1330L630 1280ZM330 1280L50 1000H0L200 1330L330 1280Z" />
<glyph unicode="&#x3a9;" glyph-name="Omega" horiz-adv-x="1500" d="M1180 800Q1180 1020 1053 1150T750 1280T448 1150T320 800Q320 525 625 0H155Q165 220 155 365H195Q205 240 255 200T425 160H485Q150 500 150 800Q150 1050 312 1190T750 1330T1187 1190T1350
800Q1350 500 1015 160H1075Q1195 160 1245 200T1305 365H1345Q1335 220 1345 0H875Q1180 525 1180 800Z" />
<glyph unicode="&#x3c0;" glyph-name="pi" horiz-adv-x="1030" d="M40 530Q50 600 90 700T220 800H940V680H790Q760 350 760 200Q760 70 825 70Q900 70 990 160L1020 130Q910 -20 810 -20Q660 -20 660 200Q660 350 690 680H380Q370 210 340 95T240 -20T170 31T225
146T300 680H240Q170 680 140 655T70 530H40Z" />
<glyph unicode="&#x2013;" glyph-name="endash" horiz-adv-x="1024" d="M0 450H1024V350H0V450Z" />
<glyph unicode="&#x2014;" glyph-name="emdash" horiz-adv-x="2048" d="M0 450H2048V350H0V450Z" />
<glyph unicode="&#x2018;" glyph-name="quoteleft" horiz-adv-x="237" />
<glyph unicode="&#x2019;" glyph-name="quoteright" horiz-adv-x="240" />
<glyph unicode="&#x201a;" glyph-name="quotesinglbase" horiz-adv-x="234" />
<glyph unicode="&#x201c;" glyph-name="quotedblleft" horiz-adv-x="350" />
<glyph unicode="&#x201d;" glyph-name="quotedblright" horiz-adv-x="350" />
<glyph unicode="&#x201e;" glyph-name="quotedblbase" horiz-adv-x="402" />
<glyph unicode="&#x2020;" glyph-name="dagger" horiz-adv-x="451" />
<glyph unicode="&#x2021;" glyph-name="daggerdbl" horiz-adv-x="336" />
<glyph unicode="&#x2022;" glyph-name="bullet" horiz-adv-x="387" />
<glyph unicode="&#x2026;" glyph-name="ellipsis" horiz-adv-x="792" />
<glyph unicode="&#x2030;" glyph-name="perthousand" horiz-adv-x="729" />
<glyph unicode="&#x2039;" glyph-name="guilsinglleft" horiz-adv-x="321" />
<glyph unicode="&#x203a;" glyph-name="guilsinglright" horiz-adv-x="321" />
<glyph unicode="&#x2044;" glyph-name="fraction" horiz-adv-x="370" d="M-400 -30L670 1330H770L-300 -30H-400Z" />
<glyph unicode="&#x2122;" glyph-name="trademark" horiz-adv-x="681" />
<glyph unicode="&#x2202;" glyph-name="partialdiff" horiz-adv-x="483" />
<glyph unicode="&#x2206;" glyph-name="increment" horiz-adv-x="298" />
<glyph unicode="&#x220f;" glyph-name="product" />
<glyph unicode="&#x2211;" glyph-name="summation" horiz-adv-x="1398" />
<glyph unicode="&#x221a;" glyph-name="radical" horiz-adv-x="819" />
<glyph unicode="&#x221e;" glyph-name="infinity" horiz-adv-x="669" />
<glyph unicode="&#x222b;" glyph-name="integral'" horiz-adv-x="1398" />
<glyph unicode="&#x2248;" glyph-name="approxequal" horiz-adv-x="636" />
<glyph unicode="&#x2260;" glyph-name="notequal" horiz-adv-x="636" />
<glyph unicode="&#x2264;" glyph-name="lessequal" horiz-adv-x="342" />
<glyph unicode="&#x2265;" glyph-name="greaterequal" horiz-adv-x="342" />
<glyph unicode="&#x25ca;" glyph-name="lozenge" horiz-adv-x="335" />
<glyph unicode="&#xfb01;" glyph-name="fi" horiz-adv-x="980" d="M170 700H20Q20 750 100 760T180 850Q180 1080 310 1240T560 1400T750 1340T820 1230T765 1160T650 1210T510 1290T360 1250T290 1030V760H540Q620 760 685 772T780 820H810V100Q810 30 960 30V0Q855
0 803 5T698 5T540 0V30Q690 30 690 100V620Q690 660 650 677T540 700H290V100Q290 30 440 30V0Q335 0 283 5T178 5T20 0V30Q170 30 170 100V700Z" />
<glyph unicode="&#xfb02;" glyph-name="fl" horiz-adv-x="980" d="M20 0V30Q170 30 170 100V730H20Q20 780 100 790T180 870Q180 1080 300 1240T545 1400T725 1360L780 1400H810V100Q810 30 960 30V0Q855 0 803 5T698 5T540 0V30Q690 30 690 100V1210Q670 1220
615 1250T475 1290T340 1250T290 1030V800H490V730H290V100Q290 30 440 30V0Q335 0 283 5T178 5T20 0Z" />
</font>
</defs>
</svg>
