<?xml version="1.0" standalone="no"?> <!DOCTYPE svg PUBLIC "-//W3C//DTD SVG 1.0//EN" "http://www.w3.org/TR/2001/REC-SVG-20010904/DTD/svg10.dtd" > <svg xmlns="http://www.w3.org/2000/svg" width="100%" height="100%">
<defs >
<font id="Cantarell-Oblique" horiz-adv-x="935" ><font-face
    font-family="Cantarell"
    units-per-em="2048"
    panose-1="2 0 6 3 0 0 0 0 0 0"
    ascent="1932"
    descent="-544"
    alphabetic="0" />
<missing-glyph horiz-adv-x="748" d="M68 0V1365H612V0H68ZM136 68H544V1297H136V68Z" />
<glyph unicode=" " glyph-name="space" horiz-adv-x="560" />
<glyph unicode="!" glyph-name="exclam" horiz-adv-x="650" d="M647 1421H817L541 458H371L647 1421ZM282 200H482L425 0H225L282 200Z" />
<glyph unicode="&quot;" glyph-name="quotedbl" horiz-adv-x="795" d="M543 1511H728L606 1083H421L543 1511ZM933 1511H1118L996 1083H811L933 1511Z" />
<glyph unicode="#" glyph-name="numbersign" horiz-adv-x="1402" d="M775 880L674 528H1032L1133 880H775ZM770 1421H930L818 1030H1176L1288 1421H1448L1336 1030H1652L1609 880H1293L1192 528H1508L1465 378H1149L1032 -30H872L989 378H631L514 -30H354L471
378H155L198 528H514L615 880H297L340 1030H658L770 1421Z" />
<glyph unicode="$" glyph-name="dollar" horiz-adv-x="1200" d="M985 1511H1106L1032 1251Q1092 1251 1137 1246T1209 1234T1285 1211L1207 1086Q1084 1123 982 1123Q909 1123 853 1107T767 1066T722 1019T701 977Q698 966 698 956Q698 917 745 887T859 833T993
782T1108 706T1155 594Q1155 567 1146 534Q1133 488 1106 445T1033 356T911 278T740 232L654 -65H533L617 225Q475 225 313 300L395 424Q478 384 534 369T654 354Q712 354 758 361T847 386T919 435T962 515Q966 531 966 539Q966 569 941 592T877 631T789 663T693
698T606 742T541 804T516 892Q516 924 526 960Q537 999 563 1039T634 1120T749 1193T908 1240L985 1511Z" />
<glyph unicode="%" glyph-name="percent" horiz-adv-x="1329" d="M1461 1421H1631L255 0H85L1461 1421ZM1164 623Q1193 623 1219 617T1273 594T1316 545T1332 464Q1332 413 1314 351Q1275 218 1189 142Q1102 66 1003 66Q929 66 884 104T838 227Q838 282 858 352Q895
482 983 552T1164 623ZM1135 527Q1111 527 1088 519T1039 493T991 438Q969 404 955 353Q940 300 940 259Q940 203 966 181T1031 159Q1055 159 1078 167T1126 194T1176 253Q1199 291 1215 348Q1229 396 1229 431Q1229 484 1202 505T1135 527ZM718 1363Q747 1363
773 1357T826 1335T869 1286T885 1206Q885 1154 867 1092Q829 959 742 882Q656 806 557 806Q483 806 437 844T391 968Q391 1023 411 1093Q436 1181 488 1244T599 1335T718 1363ZM690 1268Q666 1268 643 1260T594 1234T546 1180T510 1094Q494 1039 494 1000Q494
944 520 922T585 900Q609 900 632 908T680 935T730 994Q753 1032 769 1089Q783 1137 783 1173Q783 1268 690 1268Z" />
<glyph unicode="&amp;" glyph-name="ampersand" horiz-adv-x="1589" d="M793 671Q645 575 595 535Q472 435 441 327Q432 296 432 266Q432 193 483 147T622 100Q669 100 721 115T812 148T903 198T980 249L1046 299L793 671ZM1062 1297Q972 1297 891 1243T788 1114Q782
1092 782 1071Q782 1046 792 1020T814 976L849 924Q873 890 885 871L948 911L1007 948Q1023 958 1055 980T1101 1012T1135 1042T1166 1074T1186 1106T1202 1143Q1207 1159 1207 1180Q1207 1230 1169 1263T1062 1297ZM1120 1440Q1247 1440 1317 1386T1387 1242Q1387
1208 1377 1175Q1368 1143 1350 1111T1313 1054T1260 997L1205 947Q1183 928 1141 898T1078 855L1010 812L949 772L1191 401L1615 754L1681 660L1256 301L1453 0H1250L1114 201L1026 136Q991 110 927 72T806 10T674 -30T523 -47Q389 -47 318 15T246 181Q246 230
261 282Q272 320 289 357T325 424T372 488L422 544Q442 566 477 595L531 640Q550 655 588 680L638 714L686 746Q721 768 725 770Q723 774 710 792T694 816L678 840L662 866Q658 873 649 890T636 918L626 945Q620 962 618 975T613 1004T611 1037Q611 1078 624 1123Q664
1263 806 1352Q949 1440 1120 1440Z" />
<glyph unicode="&apos;" glyph-name="quotesingle" horiz-adv-x="405" d="M543 1511H728L606 1083H421L543 1511Z" />
<glyph unicode="(" glyph-name="parenleft" horiz-adv-x="742" d="M1086 1479Q798 1153 648 811T497 131Q497 -99 569 -324L416 -408Q327 -133 327 151Q327 373 385 576Q425 714 495 858T650 1130T813 1356T974 1548L1086 1479Z" />
<glyph unicode=")" glyph-name="parenright" horiz-adv-x="742" d="M-13 -324Q68 -233 139 -140T294 89T436 363T534 673T574 1018Q574 1250 504 1479L656 1548Q745 1275 745 996Q745 777 687 576Q647 436 576 290Q505 144 418 15T253 -216T92 -408L-13 -324Z" />
<glyph unicode="*" glyph-name="asterisk" horiz-adv-x="1196" d="M920 1421H1090L981 1102L1297 1277L1340 1129L1015 988L1258 843L1130 695L914 870L841 552H671L780 870L464 695L422 843L748 988L504 1129L631 1277L847 1102L920 1421Z" />
<glyph unicode="+" glyph-name="plus" horiz-adv-x="1400" d="M980 1233H1128L982 727H1483L1444 589H943L798 83H650L795 589H294L333 727H834L980 1233Z" />
<glyph unicode="," glyph-name="comma" horiz-adv-x="570" d="M249 170H429L159 -220H-21L249 170Z" />
<glyph unicode="-" glyph-name="hyphen" horiz-adv-x="1210" d="M384 728H1244L1204 589H344L384 728Z" />
<glyph unicode="." glyph-name="period" horiz-adv-x="570" d="M240 210H450L390 0H180L240 210Z" />
<glyph unicode="/" glyph-name="slash" horiz-adv-x="726" d="M943 1421H1113L184 -90H14L943 1421Z" />
<glyph unicode="0" glyph-name="zero" horiz-adv-x="1300" d="M1062 1440Q1116 1440 1167 1428T1270 1385T1359 1308T1420 1188T1444 1022Q1444 890 1397 726Q1349 558 1275 425T1123 211T955 75T791 1T646 -20Q592 -20 541 -8T440 36T353 115T292 238T269 408Q269
551 320 728Q366 887 438 1014T588 1219T754 1348T917 1420T1062 1440ZM1018 1287Q970 1287 918 1271T803 1214T685 1112T576 952T488 730Q442 569 442 448Q442 362 464 298T523 199T601 147T689 130Q737 130 789 147T904 207T1024 314T1135 484T1228 722Q1269
865 1269 977Q1269 1061 1247 1123T1186 1220T1106 1271T1018 1287Z" />
<glyph unicode="1" glyph-name="one" horiz-adv-x="1300" d="M1001 1421H1197L833 149H1163L1120 0H292L335 149H669L986 1257L639 1134L617 1281L1001 1421Z" />
<glyph unicode="2" glyph-name="two" horiz-adv-x="1300" d="M571 1334Q828 1431 1052 1431Q1228 1431 1326 1354T1424 1154Q1424 1110 1411 1065Q1390 992 1343 928T1233 811T1094 707L937 599Q854 542 775 481T616 333T475 150H1175L1132 0H225L252 93Q326 215
417 321T593 501T766 639T929 753T1066 847T1170 939T1226 1035Q1234 1064 1234 1088Q1234 1172 1163 1228T978 1284Q835 1284 582 1202L571 1334Z" />
<glyph unicode="3" glyph-name="three" horiz-adv-x="1300" d="M588 1336Q824 1438 1019 1438Q1176 1438 1270 1367T1364 1182Q1364 1143 1352 1101Q1320 990 1236 903T1041 778Q1239 721 1239 544Q1239 491 1223 436Q1161 221 968 88Q774 -45 534 -45Q349 -45
185 32L273 170Q464 113 581 113Q737 113 870 193T1039 399Q1049 432 1049 467Q1049 499 1040 527T1005 585T938 636T828 670T668 684L710 830Q800 830 875 846T1000 888T1087 946T1144 1011Q1163 1042 1172 1074Q1179 1098 1179 1123Q1179 1194 1121 1239T954
1284Q807 1284 604 1201L588 1336Z" />
<glyph unicode="4" glyph-name="four" horiz-adv-x="1300" d="M1129 1259L458 494H910L1129 1259ZM1101 1421H1339L1074 494H1322L1279 344H1031L932 0H768L867 344H219L251 456L1101 1421Z" />
<glyph unicode="5" glyph-name="five" horiz-adv-x="1300" d="M642 1421H1498L1455 1271H762L651 883Q758 896 858 896T1035 878T1158 829T1235 757T1276 672T1287 582Q1287 520 1268 454Q1257 417 1241 379T1193 293T1123 203T1025 118T897 47T734 -1T533 -20Q349
-20 177 15L253 166Q394 134 564 134Q665 134 750 154T890 205T988 278T1051 358T1085 437Q1095 475 1095 511Q1095 556 1079 594T1027 668T922 723T758 744Q653 744 441 720L642 1421Z" />
<glyph unicode="6" glyph-name="six" horiz-adv-x="1300" d="M871 792Q742 792 627 703T472 476Q457 422 457 371Q457 262 519 189T687 115Q814 115 934 218T1096 464Q1111 518 1111 563Q1111 668 1044 730T871 792ZM1317 1432Q1369 1432 1439 1425L1384 1277Q1332
1283 1279 1283Q1183 1283 1099 1265T952 1219T834 1149T743 1065T673 972T621 880T583 794Q657 857 752 894T950 932Q1107 932 1196 849T1286 623Q1286 557 1265 482Q1204 271 1024 123T628 -25Q581 -25 539 -18T450 12T369 69T313 167T291 311Q291 425 334 577Q390
773 474 924T653 1169T862 1324T1086 1408T1317 1432Z" />
<glyph unicode="7" glyph-name="seven" horiz-adv-x="1300" d="M538 1421H1576L1546 1314L506 0H308L1322 1261H493L538 1421Z" />
<glyph unicode="8" glyph-name="eight" horiz-adv-x="1300" d="M1056 1440Q1227 1440 1313 1379T1400 1203Q1400 1153 1383 1093Q1358 1006 1289 936T1096 792Q1283 695 1283 510Q1283 437 1252 361T1161 217T1025 96T850 11T649 -20Q470 -20 359 65T247 290Q247
337 262 390Q297 512 406 620Q515 730 661 791Q533 867 533 1010Q533 1056 545 1098Q587 1243 727 1341Q868 1440 1056 1440ZM828 726Q678 685 574 595T440 405Q431 372 431 340Q431 249 502 190T700 130Q840 130 948 207T1089 397Q1101 439 1101 475Q1101 516
1086 552T1045 613T983 661T910 697T828 726ZM1015 1297Q912 1297 824 1237Q735 1177 712 1097Q705 1073 705 1049Q705 1016 722 987T760 939T819 901T880 874L942 852Q1069 919 1133 969T1218 1088Q1226 1115 1226 1144Q1226 1217 1167 1257T1015 1297Z" />
<glyph unicode="9" glyph-name="nine" horiz-adv-x="1300" d="M1017 1301Q896 1301 774 1201T615 975Q603 932 603 892Q603 792 671 728T844 664Q971 664 1087 752T1238 963Q1250 1005 1250 1047Q1250 1151 1186 1226T1017 1301ZM1079 1441Q1127 1441 1170 1433T1258
1403T1337 1345T1391 1248T1412 1106Q1412 988 1368 835Q1312 641 1229 491T1050 247T841 93T618 9T388 -15Q325 -15 265 -9L320 139Q364 134 426 134Q525 134 611 152T758 198T875 271T964 357T1033 457T1084 556L1126 655Q1046 589 951 557T767 524Q612 524 520
609T427 833Q427 895 446 959Q483 1089 578 1199T807 1375T1079 1441Z" />
<glyph unicode=":" glyph-name="colon" horiz-adv-x="570" d="M465 993H675L615 783H405L465 993ZM240 210H450L390 0H180L240 210Z" />
<glyph unicode=";" glyph-name="semicolon" horiz-adv-x="570" d="M465 993H675L615 783H405L465 993ZM249 170H429L159 -220H-21L249 170Z" />
<glyph unicode="&lt;" glyph-name="less" horiz-adv-x="1073" d="M1296 1128L1252 973L452 621L1055 285L1007 120L253 533L300 698L1296 1128Z" />
<glyph unicode="=" glyph-name="equal" horiz-adv-x="1400" d="M494 954H1454L1411 804H451L494 954ZM364 501H1324L1281 351H321L364 501Z" />
<glyph unicode="&gt;" glyph-name="greater" horiz-adv-x="1073" d="M423 1128L1173 698L1126 533L134 120L182 285L977 621L379 973L423 1128Z" />
<glyph unicode="?" glyph-name="question" horiz-adv-x="1046" d="M835 1437Q1013 1437 1110 1377T1207 1199Q1207 1151 1191 1097Q1168 1015 1128 951T1043 844T946 764L844 694Q794 659 749 620T667 523T608 392H438Q463 478 504 548T592 664T692 748T794 820T889
886T967 966T1018 1069Q1027 1101 1027 1128Q1027 1160 1015 1187T976 1240T896 1279T767 1294Q710 1294 636 1281T510 1247L493 1369Q651 1437 835 1437ZM368 200H568L511 0H311L368 200Z" />
<glyph unicode="@" glyph-name="at" horiz-adv-x="2100" d="M1318 840Q1175 840 1057 744T889 475Q868 402 868 343Q868 230 935 170T1113 109Q1216 109 1327 161L1509 794Q1419 840 1318 840ZM1330 962Q1457 962 1559 903L1601 968H1714L1508 252Q1481 155 1481
113Q1481 20 1571 20Q1608 20 1653 46T1750 126T1853 280T1941 510Q1990 683 1990 811Q1990 1238 1455 1238Q1330 1238 1217 1210T1014 1135T846 1023T710 886T605 735T527 582T475 438Q438 306 438 195Q438 79 476 -13T583 -164T740 -254T935 -285Q1089 -285 1246
-218L1275 -337Q1074 -427 870 -427Q819 -427 768 -422T653 -400T535 -360T427 -293T335 -196T274 -64T250 108Q250 238 297 404Q326 506 366 602T467 799T600 986T771 1150T982 1281T1239 1367T1543 1399Q2176 1399 2176 896Q2176 740 2115 530Q2069 373 2004
254Q1939 133 1875 66T1738 -45T1613 -101T1512 -115Q1424 -115 1372 -68T1315 56Q1163 -20 1023 -20Q876 -20 791 61T705 286Q705 360 731 452Q796 678 961 820T1330 962Z" />
<glyph unicode="A" glyph-name="A" horiz-adv-x="1383" d="M1084 1255L643 562H1126L1084 1255ZM1042 1421H1235L1333 0H1161L1135 413H549L287 0H130L1042 1421Z" />
<glyph unicode="B" glyph-name="B" horiz-adv-x="1424" d="M697 1421H1198Q1272 1421 1328 1406T1417 1366T1470 1308T1498 1243T1505 1177Q1505 1128 1491 1079Q1466 992 1383 906T1226 794Q1325 775 1381 704T1438 533Q1438 484 1423 431Q1414 400 1399 366T1356
289T1291 207T1200 130T1083 63T934 18T752 0H290L697 1421ZM656 682L503 150H768Q804 150 828 150T901 156T984 171T1064 200T1141 247T1204 316Q1233 358 1248 413Q1260 456 1260 491Q1260 589 1178 642T950 696Q930 696 656 682ZM830 1291L693 814Q712 815 759
815T832 816T907 820T985 828T1058 842T1130 864T1193 896T1250 940T1293 997T1325 1071Q1335 1104 1335 1137Q1335 1204 1283 1247T1104 1291H830Z" />
<glyph unicode="C" glyph-name="C" horiz-adv-x="1451" d="M1396 1431Q1590 1431 1761 1355L1668 1214Q1493 1281 1348 1281Q1228 1281 1112 1234T906 1107T748 925T649 710Q623 618 623 537Q623 358 736 247T1057 136Q1211 136 1395 196L1411 70Q1176 -20 969
-20Q835 -20 733 19T568 128T474 287T442 481T473 697T560 914T702 1113T891 1278T1125 1390T1396 1431Z" />
<glyph unicode="D" glyph-name="D" horiz-adv-x="1606" d="M1137 1421Q1263 1421 1360 1398T1521 1335T1624 1238T1681 1119T1698 984Q1698 877 1662 754Q1635 660 1596 575Q1558 489 1498 400T1365 241T1190 114T973 30Q913 16 842 9T726 1T598 0H290L697 1421H1137ZM824
1271L503 150H710Q755 150 785 151T866 157T957 172T1049 201T1145 247T1237 316T1327 411Q1429 540 1481 720Q1511 823 1511 913Q1511 992 1488 1056T1424 1161T1336 1228T1231 1263Q1189 1271 1100 1271H824Z" />
<glyph unicode="E" glyph-name="E" horiz-adv-x="1283" d="M290 0L697 1421H1530L1487 1271H824L691 807H1299L1256 657H648L503 150H1166L1123 0H290Z" />
<glyph unicode="F" glyph-name="F" horiz-adv-x="1248" d="M824 1271L691 807H1284L1241 657H648L460 0H290L697 1421H1520L1477 1271H824Z" />
<glyph unicode="G" glyph-name="G" horiz-adv-x="1591" d="M1330 1432Q1569 1432 1752 1311L1649 1184Q1585 1224 1492 1253T1296 1282Q1191 1282 1083 1243T878 1134T705 956T591 720Q564 624 564 540Q564 354 681 243T1000 131Q1193 131 1347 247L1451 610H1047L1087
750H1656L1496 192Q1460 161 1416 132T1298 65T1124 4T916 -20Q780 -20 676 19T509 127T415 285T383 479T414 695T501 913T643 1113T831 1278T1063 1390T1330 1432Z" />
<glyph unicode="H" glyph-name="H" horiz-adv-x="1600" d="M1627 1421H1797L1390 0H1220L1409 658H649L460 0H290L697 1421H867L692 808H1452L1627 1421Z" />
<glyph unicode="I" glyph-name="I" horiz-adv-x="730" d="M727 1421H897L490 0H320L727 1421Z" />
<glyph unicode="J" glyph-name="J" horiz-adv-x="953" d="M980 1421H1150L865 426Q832 312 792 241Q751 167 675 106Q522 -17 301 -17Q200 -17 112 7L180 149Q243 133 316 133Q377 133 428 145T515 175T581 221T628 272T660 327T680 376T693 417L980 1421Z" />
<glyph unicode="K" glyph-name="K" horiz-adv-x="1417" d="M1493 1421H1706L911 743L1337 0H1118L693 729L1493 1421ZM697 1421H867L460 0H290L697 1421Z" />
<glyph unicode="L" glyph-name="L" horiz-adv-x="1133" d="M697 1421H867L503 149H1141L1098 0H290L697 1421Z" />
<glyph unicode="M" glyph-name="M" horiz-adv-x="1884" d="M697 1421H937L1146 559L1856 1421H2081L1674 0H1504L1841 1177L1184 407H1014L797 1177L460 0H290L697 1421Z" />
<glyph unicode="N" glyph-name="N" horiz-adv-x="1659" d="M697 1421H912L1346 232L1686 1421H1856L1449 0H1234L802 1191L460 0H290L697 1421Z" />
<glyph unicode="O" glyph-name="O" horiz-adv-x="1686" d="M1244 1287Q1153 1287 1059 1253T876 1154T713 978T599 728Q566 611 566 514Q566 337 664 236T928 134Q999 134 1073 155T1224 221T1366 333T1489 496T1579 709Q1612 826 1612 918Q1612 993 1592 1055T1537
1159T1455 1231T1355 1273T1244 1287ZM1296 1436Q1526 1436 1661 1311T1796 966Q1796 855 1759 727Q1663 396 1416 191Q1168 -15 873 -15Q769 -15 681 14T525 101T419 250T380 458Q380 573 418 707Q513 1037 758 1236T1296 1436Z" />
<glyph unicode="P" glyph-name="P" horiz-adv-x="1339" d="M674 746Q768 738 854 738Q903 738 936 739T1019 746T1103 762T1180 794T1251 843T1308 916Q1335 958 1351 1015Q1365 1063 1365 1104Q1365 1149 1346 1181T1300 1230T1230 1257T1153 1269T1072 1271H824L674
746ZM697 1421H1166Q1203 1421 1227 1421T1295 1415T1370 1402T1438 1375T1497 1331T1536 1267T1552 1177Q1552 1115 1531 1043Q1511 973 1482 916Q1454 859 1422 816T1347 738T1265 680T1174 640T1081 613T983 598T887 591T793 589Q726 589 631 596L460 0H290L697
1421Z" />
<glyph unicode="Q" glyph-name="Q" horiz-adv-x="1706" d="M1241 1287Q1153 1287 1061 1254T879 1156T714 979T598 724Q565 607 565 512Q565 331 670 233T946 134Q1109 134 1256 227L1027 525L1163 633L1382 332Q1510 469 1572 685Q1609 814 1609 920Q1609 1001
1587 1065T1528 1170T1443 1238T1344 1276T1241 1287ZM1298 1436Q1427 1436 1524 1399T1679 1295T1765 1144T1793 958Q1793 767 1702 563T1464 220L1594 41L1474 -56L1338 121Q1127 -15 884 -15Q654 -15 517 109T379 459Q379 573 417 705Q480 925 616 1092Q751
1260 928 1348T1298 1436Z" />
<glyph unicode="R" glyph-name="R" horiz-adv-x="1438" d="M674 742H919Q960 742 993 744T1073 755T1158 782T1234 829T1301 904Q1329 950 1348 1012Q1362 1059 1362 1100Q1362 1272 1112 1272H826L674 742ZM1524 1031Q1504 960 1469 896T1380 774T1252 674T1085
611L1311 0H1121L906 592H631L461 0H290L697 1421H1219Q1263 1421 1297 1418T1382 1402T1465 1364T1523 1293T1548 1180Q1548 1113 1524 1031Z" />
<glyph unicode="S" glyph-name="S" horiz-adv-x="1361" d="M1232 1434Q1396 1434 1569 1377L1469 1222Q1305 1274 1172 1274Q1024 1274 904 1211T755 1050Q748 1028 748 1004Q748 957 781 920T867 858T985 810T1113 759T1230 698T1317 612T1350 493Q1350 450 1335
397Q1319 340 1284 284Q1250 227 1192 172T1060 74T884 6T666 -20T460 4T262 76L367 241Q591 148 735 148Q887 148 1000 209T1143 372Q1151 397 1151 425Q1151 475 1118 514T1031 578T914 627L786 676Q721 701 668 732T582 814T548 930Q548 974 562 1022Q612 1193
798 1314Q986 1434 1232 1434Z" />
<glyph unicode="T" glyph-name="T" horiz-adv-x="1210" d="M492 1421H1612L1569 1271H1094L730 0H560L924 1271H449L492 1421Z" />
<glyph unicode="U" glyph-name="U" horiz-adv-x="1582" d="M697 1421H867L603 500Q576 406 576 350Q576 288 605 240Q674 127 867 127Q1008 127 1121 188Q1233 250 1293 362Q1320 413 1345 500L1609 1421H1777L1511 485Q1498 438 1486 404Q1474 370 1447 314T1387
217T1301 128T1183 51T1027 0T825 -20Q745 -20 680 -9T570 21T493 65T441 117T411 174T397 230T393 280V300Q395 364 430 487L697 1421Z" />
<glyph unicode="V" glyph-name="V" horiz-adv-x="1401" d="M547 1421H749L800 180L1561 1421H1748L846 0H635L547 1421Z" />
<glyph unicode="W" glyph-name="W" horiz-adv-x="2165" d="M547 1421H727L742 227L1444 1421H1615L1643 227L2332 1421H2512L1667 0H1486L1453 1187L764 0H583L547 1421Z" />
<glyph unicode="X" glyph-name="X" horiz-adv-x="1368" d="M1494 1421H1690L1047 746L1338 0H1118L891 599L320 0H110L836 742L577 1421H783L992 886L1494 1421Z" />
<glyph unicode="Y" glyph-name="Y" horiz-adv-x="1263" d="M507 1421H708L902 834L1440 1421H1630L932 673L739 0H569L762 673L507 1421Z" />
<glyph unicode="Z" glyph-name="Z" horiz-adv-x="1358" d="M592 1421H1678L1647 1312L424 150H1341L1298 0H155L187 111L1392 1271H549L592 1421Z" />
<glyph unicode="[" glyph-name="bracketleft" horiz-adv-x="758" d="M683 1511H1141L1099 1362H805L339 -261H633L590 -410H132L683 1511Z" />
<glyph unicode="\" glyph-name="backslash" horiz-adv-x="726" d="M427 1421H597L660 -90H490L427 1421Z" />
<glyph unicode="]" glyph-name="bracketright" horiz-adv-x="758" d="M483 1511H941L390 -410H-68L-25 -261H269L735 1362H441L483 1511Z" />
<glyph unicode="^" glyph-name="asciicircum" horiz-adv-x="1479" d="M1167 1541L1341 1255L1223 1167L1103 1363L866 1167L800 1246L1167 1541Z" />
<glyph unicode="_" glyph-name="underscore" horiz-adv-x="1160" d="M193 150H1053L1010 0H150L193 150Z" />
<glyph unicode="`" glyph-name="grave" horiz-adv-x="1122" d="M800 1586L1215 1276L1121 1168L694 1463L800 1586Z" />
<glyph unicode="a" glyph-name="a" horiz-adv-x="1058" d="M832 424H772Q716 424 675 422T576 411T479 386T405 339T359 264Q355 251 355 234Q355 182 402 146T524 109Q650 109 769 206L832 424ZM781 982Q941 982 1011 928T1081 775Q1081 720 1060 644L875 0H759L747
90Q597 -20 442 -20Q325 -20 255 41T184 194Q184 224 193 256Q213 327 260 379T369 464T515 515T682 541T867 548L889 623Q905 678 905 716Q905 846 715 846Q619 846 444 803L447 921Q626 982 781 982Z" />
<glyph unicode="b" glyph-name="b" horiz-adv-x="1169" d="M795 847Q689 847 578 796L393 154Q488 109 586 109Q631 109 675 118T771 153T865 218T948 320Q985 383 1009 465Q1034 551 1034 622Q1034 687 1012 733T953 803T878 837T795 847ZM619 1511H783L612 916Q757
983 890 983Q950 983 1003 968T1103 919T1179 825T1207 681Q1207 597 1177 493Q1108 254 942 118Q776 -20 574 -20Q440 -20 332 46L299 0H185L619 1511Z" />
<glyph unicode="c" glyph-name="c" horiz-adv-x="986" d="M258 459Q291 573 344 664T460 813T595 910T738 965T878 981Q1017 981 1132 922L1059 804Q962 840 858 840Q793 840 734 824T615 772T505 664T427 493Q402 406 402 341Q402 277 424 232T485 162T568 126T668
115Q758 115 860 147L867 35Q711 -20 572 -20Q506 -20 449 -6T341 40T259 132T229 276Q229 358 258 459Z" />
<glyph unicode="d" glyph-name="d" horiz-adv-x="1174" d="M642 115Q750 115 866 169L1049 808Q957 854 852 854Q807 854 763 845T667 810T573 745T491 640T427 490Q403 404 403 342Q403 277 425 231T484 160T560 126T642 115ZM260 465Q308 630 403 749T617 926T865
983Q982 983 1084 930L1250 1511H1414L981 0H867L858 62Q698 -20 550 -20Q488 -20 434 -4T333 47T259 141T231 283Q231 365 260 465Z" />
<glyph unicode="e" glyph-name="e" horiz-adv-x="1088" d="M801 840Q675 840 578 747T445 529H948Q973 616 973 677Q973 840 801 840ZM876 982Q1143 982 1143 746Q1143 655 1094 481L1072 405H406Q396 368 396 338Q396 243 469 177T684 111Q783 111 914 146L912
35Q738 -20 585 -20Q505 -20 443 -5T342 37T276 102T240 183T229 275Q229 357 256 450Q296 586 366 690Q436 795 521 857T697 950T876 982Z" />
<glyph unicode="f" glyph-name="f" horiz-adv-x="799" d="M1020 1292Q962 1292 915 1275T841 1234T791 1177T761 1123T746 1079L713 963H1036L999 834H676L381 -196Q344 -325 287 -391Q229 -458 145 -494T-39 -531Q-147 -531 -261 -493L-202 -373Q-122 -396 -55
-396Q3 -396 49 -380T123 -343T171 -292T199 -243T213 -203L510 834H371L408 963H547L578 1069Q618 1207 676 1278Q736 1351 821 1390Q907 1429 1005 1429Q1110 1429 1227 1390L1167 1266Q1086 1292 1020 1292Z" />
<glyph unicode="g" glyph-name="g" horiz-adv-x="1162" d="M830 850Q695 850 584 753T427 497Q405 421 405 352Q405 244 463 180T639 115Q746 115 864 170L1043 796Q925 850 830 850ZM857 983Q974 983 1103 904L1140 963H1255L959 -70Q950 -100 941 -127T907 -204T853
-296T774 -385T666 -465T525 -519T346 -541Q197 -541 64 -477L144 -358Q251 -404 364 -404Q699 -404 808 -25L829 48Q684 -20 554 -20Q491 -20 435 -3T333 50T259 147T232 291Q232 372 262 479Q294 591 351 681T472 826T609 917T743 968T857 983Z" />
<glyph unicode="h" glyph-name="h" horiz-adv-x="1178" d="M846 835Q731 835 567 761L349 0H185L619 1511H783L604 888Q803 981 953 981Q1192 981 1192 766Q1192 689 1153 553L994 0H826L992 580Q1010 646 1010 689Q1010 835 846 835Z" />
<glyph unicode="i" glyph-name="i" horiz-adv-x="524" d="M463 988H627L344 0H180L463 988ZM572 1421H766L712 1232H518L572 1421Z" />
<glyph unicode="j" glyph-name="j" horiz-adv-x="520" d="M459 988H623L301 -137Q287 -185 277 -212Q266 -242 237 -295T172 -386T71 -465T-75 -534L-100 -410Q81 -332 132 -154L459 988ZM568 1421H762L708 1232H514L568 1421Z" />
<glyph unicode="k" glyph-name="k" horiz-adv-x="1061" d="M1069 1008H1250L699 563L987 0H790L512 546L1069 1008ZM609 1511H773L340 0H176L609 1511Z" />
<glyph unicode="l" glyph-name="l" horiz-adv-x="564" d="M633 1511H797L364 0H200L633 1511Z" />
<glyph unicode="m" glyph-name="m" horiz-adv-x="1712" d="M803 831Q720 831 557 757L340 0H176L452 963H567L578 881Q783 982 911 982Q1060 982 1112 872Q1335 981 1488 981Q1723 981 1723 775Q1723 697 1689 578L1524 0H1360L1528 587Q1545 649 1545 692Q1545
831 1392 831Q1300 831 1133 756Q1131 700 1094 569L931 0H767L936 590Q952 646 952 691Q952 831 803 831Z" />
<glyph unicode="n" glyph-name="n" horiz-adv-x="1163" d="M452 963H567L579 879Q796 983 950 983Q1180 983 1180 780Q1180 700 1144 575L979 0H815L982 583Q1001 651 1001 693Q1001 835 836 835Q722 835 558 761L340 0H176L452 963Z" />
<glyph unicode="o" glyph-name="o" horiz-adv-x="1195" d="M828 842Q752 842 675 805T529 687T430 498Q410 427 410 366Q410 256 469 188T636 120Q764 120 878 217Q991 313 1036 469Q1056 539 1056 600Q1056 715 991 778T828 842ZM881 982Q1041 982 1136 900T1231
665Q1231 589 1206 501Q1137 262 963 121T578 -20Q419 -20 328 64T236 300Q236 381 262 471Q329 705 499 844Q669 982 881 982Z" />
<glyph unicode="p" glyph-name="p" horiz-adv-x="1163" d="M789 846Q681 846 567 793L384 155Q476 109 580 109Q625 109 669 118T765 153T859 218T942 320Q979 383 1003 465Q1028 551 1028 621Q1028 686 1006 732T947 802T872 836T789 846ZM884 982Q932 982 975
973T1060 941T1133 885T1182 798T1201 679Q1201 600 1171 492Q1125 334 1033 217T820 40T568 -20Q451 -20 349 33L187 -531H23L452 963H566L575 900Q736 982 884 982Z" />
<glyph unicode="q" glyph-name="q" horiz-adv-x="1162" d="M830 850Q694 850 584 753T426 491Q403 409 403 343Q403 280 424 234T481 163T557 127T642 116Q750 116 864 169L1043 796Q925 850 830 850ZM857 983Q974 983 1103 904L1140 963H1255L827 -531H663L829
49Q680 -20 547 -20Q486 -20 432 -4T332 46T258 141T231 284Q231 372 261 476Q297 600 364 699T514 859T685 951T857 983Z" />
<glyph unicode="r" glyph-name="r" horiz-adv-x="789" d="M577 889Q725 982 873 982Q974 982 1046 943L960 813Q891 842 810 842Q688 842 562 775L340 0H176L452 963H567L577 889Z" />
<glyph unicode="s" glyph-name="s" horiz-adv-x="1005" d="M862 982Q883 982 901 982T936 979T964 976T991 972T1014 968T1037 962L1056 956Q1060 955 1078 949L1098 942L1020 818Q895 854 799 854Q728 854 673 838T588 796T543 748T522 706Q519 696 519 686Q519
654 552 628T636 584T744 543T853 495T936 428T970 333Q970 306 961 275Q949 235 928 198T866 120T771 49T634 0T452 -20Q302 -20 143 55L223 177Q314 140 374 125T495 109Q735 109 778 260Q781 272 781 283Q781 322 736 350T625 398T495 444T385 515T339 626Q339
658 349 692Q359 727 381 764Q403 800 445 840T543 911T681 962T862 982Z" />
<glyph unicode="t" glyph-name="t" horiz-adv-x="763" d="M696 17Q542 -20 464 -20Q259 -20 259 156Q259 215 284 302L437 834H307L344 963H474L562 1271H726L638 963H932L895 834H601L450 306Q434 247 434 214Q434 108 551 108Q579 108 706 128L696 17Z" />
<glyph unicode="u" glyph-name="u" horiz-adv-x="1164" d="M1092 963H1256L980 0H865L854 83Q639 -20 482 -20Q251 -20 251 184Q251 263 287 388L452 963H616L448 379Q430 320 430 272Q430 127 595 127Q708 127 874 202L1092 963Z" />
<glyph unicode="v" glyph-name="v" horiz-adv-x="980" d="M1190 963L571 0H405L340 963H520L539 159L1020 963H1190Z" />
<glyph unicode="w" glyph-name="w" horiz-adv-x="1654" d="M335 963H510L539 155L1019 963H1176L1202 156L1694 963H1869L1237 0H1076L1043 781L566 0H405L335 963Z" />
<glyph unicode="x" glyph-name="x" horiz-adv-x="1034" d="M340 963H529L692 581L1064 963H1239L738 472L944 0H754L599 362L250 0H75L552 473L340 963Z" />
<glyph unicode="y" glyph-name="y" horiz-adv-x="1049" d="M325 963H505L581 139L1104 963H1274L286 -531H111L444 -57L325 963Z" />
<glyph unicode="z" glyph-name="z" horiz-adv-x="1058" d="M422 963H1157L1132 876L391 129H942L905 0H146L171 87L910 834H385L422 963Z" />
<glyph unicode="{" glyph-name="braceleft" horiz-adv-x="798" d="M267 618Q316 626 360 647T437 693T500 756T549 826T588 900T618 970L640 1032L657 1080Q697 1185 753 1265T862 1389T974 1462T1072 1499T1145 1511L1138 1382Q1017 1366 918 1262Q875 1216 841
1153Q807 1089 787 1028T738 897T678 767T591 649T459 549Q554 474 554 333Q554 264 525 124T495 -75Q495 -125 509 -163Q527 -211 567 -243T661 -283L594 -412Q568 -410 541 -404T476 -377T408 -327T358 -240T337 -112Q337 -60 349 6Q353 27 365 82T385 182T392
265Q392 373 328 432Q288 469 228 480L267 618Z" />
<glyph unicode="|" glyph-name="bar" horiz-adv-x="884" d="M819 1601H983L436 -308H272L819 1601Z" />
<glyph unicode="}" glyph-name="braceright" horiz-adv-x="798" d="M519 1511Q547 1509 575 1502T641 1475T707 1425T755 1339T775 1212Q775 1149 761 1080L750 1028L738 968Q732 940 728 916Q722 874 722 838Q722 739 766 685T885 618L846 480Q796 472 751 451T674
404T611 340T562 269T523 194T494 122L471 57L453 6Q414 -96 357 -174T246 -295T132 -365T36 -401T-32 -412L-25 -283Q97 -267 195 -163Q244 -111 281 -32T344 123T405 278T502 428T653 549Q559 623 559 763Q559 831 588 971T618 1172Q618 1223 604 1262Q586 1310
546 1342T452 1382L519 1511Z" />
<glyph unicode="~" glyph-name="asciitilde" horiz-adv-x="1400" d="M1266 1361Q1278 1361 1289 1364T1311 1375T1330 1390T1348 1411T1364 1434T1379 1462L1392 1490L1406 1518L1419 1545L1522 1528Q1518 1519 1504 1492L1485 1452Q1479 1439 1466 1413T1443
1374L1418 1339Q1403 1317 1391 1306T1360 1279T1323 1257T1283 1245T1237 1239Q1193 1239 1157 1257T1098 1303T1056 1357T1015 1402T971 1421Q959 1421 948 1418T926 1407L906 1392Q898 1385 888 1371L874 1348Q868 1340 858 1322L845 1295Q841 1287 832 1267T820
1241L716 1256Q720 1265 733 1292T752 1332T772 1370T794 1409L818 1444Q834 1466 847 1477L878 1503Q896 1518 914 1525T954 1537T1000 1543Q1044 1543 1080 1525T1139 1479T1181 1425T1222 1380T1266 1361Z" />
<glyph unicode="&#xa0;" glyph-name="uni00A0" horiz-adv-x="560" />
<glyph unicode="&#xa1;" glyph-name="exclamdown" horiz-adv-x="650" d="M604 1321H804L746 1121H546L604 1321ZM487 863H657L292 -410H122L487 863Z" />
<glyph unicode="&#xa2;" glyph-name="cent" horiz-adv-x="1021" d="M354 713Q417 931 558 1069Q700 1208 897 1236L976 1511H1097L1020 1241Q1127 1241 1245 1183L1171 1063Q1071 1101 965 1101Q800 1101 686 1010Q572 918 523 747Q499 664 499 595Q499 529 522
481T585 408T672 372T772 360Q864 360 968 393L975 280Q831 229 730 229L645 -65H524L609 229Q478 245 402 320T325 532Q325 613 354 713Z" />
<glyph unicode="&#xa3;" glyph-name="sterling" horiz-adv-x="1300" d="M191 135H435L586 662H410L449 797H625L665 938Q698 1052 752 1140T869 1282T1007 1370T1151 1418T1292 1431Q1409 1431 1516 1393L1433 1271Q1351 1295 1275 1295T1135 1278T1026 1229T947
1161T888 1078T849 993T821 911L789 797H1319L1280 662H750L599 135H1187L1148 0H152L191 135Z" />
<glyph unicode="&#xa5;" glyph-name="yen" horiz-adv-x="1300" d="M550 1421H735L885 818L1389 1421H1564L930 699H1212L1177 574H888L830 374H1119L1083 249H794L723 0H563L634 249H359L395 374H670L728 574H453L488 699H756L550 1421Z" />
<glyph unicode="&#xa7;" glyph-name="section" horiz-adv-x="1136" d="M673 870Q611 829 595 771Q591 758 591 743Q591 715 609 692T662 651T731 619T818 587T902 554Q958 597 976 662Q980 677 980 692Q980 721 963 743T910 782T842 811L756 840Q705 857 673 870ZM1062
1434Q1090 1434 1114 1433T1162 1429L1198 1424Q1213 1422 1234 1416L1262 1409Q1270 1407 1293 1400T1321 1391L1238 1260Q1124 1299 998 1299Q890 1299 807 1259T703 1148Q699 1136 699 1121Q699 1083 734 1053T824 1002L940 957Q1002 932 1055 907T1144 838T1180
740Q1180 714 1171 682Q1137 560 1027 474Q1071 427 1071 365Q1071 338 1062 306Q1050 263 1027 222T960 135T857 57T711 2T518 -20H505Q320 -20 173 45L254 169Q408 109 541 109Q817 109 868 286Q872 299 872 315Q872 353 837 382T750 428T636 467T523 513T435
581T400 683Q400 713 411 752Q441 859 554 944Q508 993 508 1059Q508 1091 518 1127Q532 1177 569 1227T670 1326T835 1404T1062 1434Z" />
<glyph unicode="&#xa8;" glyph-name="dieresis" horiz-adv-x="1200" d="M1139 1421H1324L1271 1235H1086L1139 1421ZM690 1421H875L822 1235H637L690 1421Z" />
<glyph unicode="&#xa9;" glyph-name="copyright" horiz-adv-x="1760" d="M1276 1380Q1519 1380 1666 1236T1813 870Q1813 775 1786 683Q1745 543 1654 416Q1562 288 1441 194T1171 43T876 -14Q633 -14 486 130T339 496Q339 591 366 683Q420 867 556 1026Q694 1186
886 1283T1276 1380ZM1238 1248Q1080 1248 925 1171T656 964Q543 835 499 683Q477 606 477 532Q477 352 596 235T914 118Q1072 118 1227 195T1496 402Q1609 531 1653 683Q1675 760 1675 834Q1675 1014 1556 1131T1238 1248ZM1209 1055Q1313 1055 1397 1012L1342
925Q1270 953 1192 953Q1144 953 1101 941T1013 902T932 822T874 694Q856 630 856 582Q856 492 910 454T1051 416Q1118 416 1195 440L1202 358Q1090 319 986 319Q937 319 895 329T815 364T754 433T732 540T753 673Q782 776 834 853T950 972T1078 1035T1209 1055Z"
/>
<glyph unicode="&#xaa;" glyph-name="ordfeminine" horiz-adv-x="759" d="M805 1019H777Q734 1019 704 1017T633 1005T567 974T531 917Q528 906 528 896Q528 865 552 844T622 822Q696 822 771 902L805 1019ZM828 1102L835 1125Q843 1154 843 1175Q843 1259 734
1259Q654 1259 560 1232L562 1303Q670 1339 769 1339Q950 1339 950 1214Q950 1186 935 1131L828 760H758L752 814Q665 742 584 742Q511 742 468 773T425 863Q425 885 433 915Q465 1027 555 1064T828 1102Z" />
<glyph unicode="&#xab;" glyph-name="guillemotleft" horiz-adv-x="936" d="M613 988H798L420 623L589 258H404L254 623L613 988ZM984 988H1169L791 623L960 258H775L625 623L984 988Z" />
<glyph unicode="&#xac;" glyph-name="logicalnot" horiz-adv-x="1400" d="M335 732H1485L1356 282H1208L1294 583H292L335 732Z" />
<glyph unicode="&#xae;" glyph-name="registered" horiz-adv-x="1232" d="M972 1240H876L824 1061Q871 1061 887 1061T915 1060Q1042 1060 1067 1147Q1072 1167 1072 1179Q1072 1240 972 1240ZM1032 1450Q859 1450 704 1330Q548 1210 500 1043Q484 988 484 934Q484
805 570 721T798 636Q971 636 1126 756T1330 1043Q1346 1098 1346 1152Q1346 1281 1260 1365T1032 1450ZM1064 1561Q1242 1561 1352 1455T1462 1184Q1462 1117 1441 1043Q1401 902 1296 782Q1190 663 1049 594T767 525Q587 525 478 632T369 904Q369 973 389 1043Q430
1185 534 1304Q640 1423 781 1492T1064 1561ZM1028 1320Q1051 1320 1066 1318T1105 1310T1144 1285T1165 1237Q1167 1223 1167 1215Q1167 1178 1152 1137T1098 1055T1007 998L1056 776H956L914 984H802L743 776H650L806 1320H1028Z" />
<glyph unicode="&#xaf;" glyph-name="overscore" horiz-adv-x="1400" d="M755 1640H1585L1543 1491H713L755 1640Z" />
<glyph unicode="&#xb0;" glyph-name="degree" horiz-adv-x="589" d="M712 1459Q785 1459 831 1414T877 1297Q877 1268 868 1235Q841 1141 758 1076T585 1010Q512 1010 466 1055T420 1172Q420 1202 429 1235Q456 1328 539 1393T712 1459ZM687 1368Q632 1368 583
1329T519 1235Q513 1216 513 1197Q513 1156 539 1129T611 1101Q665 1101 713 1141T776 1235Q782 1254 782 1273Q782 1314 757 1341T687 1368Z" />
<glyph unicode="&#xb1;" glyph-name="plusminus" horiz-adv-x="1400" d="M1034 1421H1180L1062 1009H1469L1430 872H1023L905 461H759L877 872H470L509 1009H916L1034 1421ZM302 287H1262L1223 150H263L302 287Z" />
<glyph unicode="&#xb4;" glyph-name="acute" horiz-adv-x="1122" d="M1232 1585L1267 1462L671 1167L640 1275L1232 1585Z" />
<glyph unicode="&#xb5;" glyph-name="uni00B5" horiz-adv-x="1174" d="M461 963H625L470 421Q447 337 447 280Q447 112 618 112Q705 112 880 187L1102 963H1266L990 0H875L865 67Q696 -27 552 -27Q429 -27 364 53L232 -410H68L461 963Z" />
<glyph unicode="&#xb6;" glyph-name="paragraph" horiz-adv-x="1338" d="M1034 1511H1581L1148 0H978L1368 1361H1128L738 0H567L764 686Q724 686 685 692T597 716T514 765T454 848T429 972Q429 1041 455 1133Q473 1195 498 1244Q525 1295 554 1331T621 1397T693
1444T769 1476T844 1496T916 1506T979 1510T1034 1511Z" />
<glyph unicode="&#xb7;" glyph-name="middot" horiz-adv-x="590" d="M430 838H640L580 628H370L430 838Z" />
<glyph unicode="&#xb8;" glyph-name="cedilla" horiz-adv-x="1101" d="M625 -325Q628 -313 628 -304Q628 -292 624 -283T610 -265T590 -251T560 -237T524 -224L480 -210L433 -195L553 22H680L595 -135L609 -140Q623 -144 628 -146L648 -154Q662 -159 669 -164L688
-176Q701 -184 708 -193L722 -213Q729 -224 732 -237T735 -267Q735 -290 728 -314Q707 -385 636 -441T471 -497Q450 -497 427 -494T377 -483T335 -472T291 -457T258 -446L310 -355Q454 -402 503 -402Q549 -402 582 -380T625 -325Z" />
<glyph unicode="&#xba;" glyph-name="ordmasculine" horiz-adv-x="751" d="M811 1519Q851 1519 886 1510T957 1480T1015 1413T1037 1303Q1037 1232 1012 1145Q959 962 842 858Q723 752 589 752Q489 752 428 804T366 972Q366 1049 394 1146Q446 1325 565 1422T811
1519ZM779 1416Q743 1416 708 1404T635 1363T564 1280T509 1149Q485 1066 485 1003Q485 919 524 886T620 852Q655 852 689 864T763 906T837 996T897 1142Q918 1215 918 1271Q918 1352 878 1384T779 1416Z" />
<glyph unicode="&#xbb;" glyph-name="guillemotright" horiz-adv-x="936" d="M890 988L1040 623L680 258H495L874 623L704 988H890ZM519 988L669 623L309 258H124L503 623L333 988H519Z" />
<glyph unicode="&#xbf;" glyph-name="questiondown" horiz-adv-x="1047" d="M746 1421H946L889 1220H689L746 1421ZM637 988H807Q777 882 777 802Q777 733 799 679T852 590L915 521Q946 488 968 445T990 347Q990 300 973 241Q942 135 850 46Q756 -45 649 -93T451
-141Q347 -141 270 -119T113 -53L200 69Q350 0 465 0Q593 0 685 66T804 225Q814 259 814 288Q814 331 792 368T738 436T674 505T620 603T597 742Q597 850 637 988Z" />
<glyph unicode="&#xc0;" glyph-name="Agrave" horiz-adv-x="1383" d="M1079 1929L1494 1619L1401 1511L974 1806L1079 1929ZM1084 1255L643 562H1126L1084 1255ZM1042 1421H1235L1333 0H1161L1135 413H549L287 0H130L1042 1421Z" />
<glyph unicode="&#xc1;" glyph-name="Aacute" horiz-adv-x="1383" d="M1487 1929L1522 1806L925 1511L894 1619L1487 1929ZM1084 1255L643 562H1126L1084 1255ZM1042 1421H1235L1333 0H1161L1135 413H549L287 0H130L1042 1421Z" />
<glyph unicode="&#xc2;" glyph-name="Acircumflex" horiz-adv-x="1383" d="M1303 1924L1477 1638L1358 1550L1239 1746L1002 1551L936 1629L1303 1924ZM1084 1255L643 562H1126L1084 1255ZM1042 1421H1235L1333 0H1161L1135 413H549L287 0H130L1042 1421Z" />
<glyph unicode="&#xc3;" glyph-name="Atilde" horiz-adv-x="1383" d="M1042 1421H1235L1333 0H1161L1135 413H549L287 0H130L1042 1421ZM1084 1255L643 562H1126L1084 1255ZM1547 1878L1650 1861Q1646 1852 1633 1825T1614 1785T1594 1747T1572 1708L1548 1673Q1532
1651 1519 1640L1488 1614Q1470 1599 1452 1592T1412 1580T1366 1574Q1322 1574 1286 1592T1227 1637T1185 1690T1144 1735T1100 1754Q1086 1754 1073 1749T1050 1738T1029 1718T1011 1695T993 1667T978 1638L962 1604Q951 1581 947 1574L844 1589Q848 1598 861
1625T880 1665T900 1703T922 1742L946 1777Q962 1799 975 1810L1006 1836Q1024 1851 1042 1858T1082 1870T1128 1876Q1172 1876 1208 1858T1267 1813T1309 1760T1350 1715T1394 1696Q1410 1696 1423 1701T1450 1719L1473 1741Q1482 1750 1494 1772T1512 1805L1530
1843Q1544 1871 1547 1878Z" />
<glyph unicode="&#xc4;" glyph-name="Adieresis" horiz-adv-x="1383" d="M1408 1897H1593L1540 1712H1355L1408 1897ZM960 1897H1145L1092 1712H907L960 1897ZM1084 1255L643 562H1126L1084 1255ZM1042 1421H1235L1333 0H1161L1135 413H549L287 0H130L1042 1421Z" />
<glyph unicode="&#xc5;" glyph-name="Aring" horiz-adv-x="1383" d="M1084 1255L643 562H1126L1084 1255ZM1242 1769Q1175 1769 1118 1725T1042 1618Q1036 1597 1036 1576Q1036 1528 1067 1497T1155 1465Q1220 1465 1276 1511T1351 1618Q1357 1639 1357 1659Q1357
1706 1326 1737T1242 1769ZM1270 1873Q1359 1873 1415 1821T1472 1686Q1472 1652 1462 1618Q1440 1541 1378 1478Q1317 1414 1238 1383L1333 0H1161L1135 413H549L287 0H130L1019 1385Q924 1435 924 1545Q924 1601 951 1659T1023 1764T1133 1842T1270 1873Z" />
<glyph unicode="&#xc6;" glyph-name="AE" horiz-adv-x="1915" d="M1092 1421H2162L2119 1271H1501L1368 807H1931L1888 657H1325L1180 150H1798L1755 0H967L1086 414H571L292 0H130L1092 1421ZM671 562H1128L1331 1271H1148L671 562Z" />
<glyph unicode="&#xc7;" glyph-name="Ccedilla" horiz-adv-x="1451" d="M1007 -316Q985 -393 910 -450Q835 -506 741 -506Q704 -506 668 -498T518 -453L578 -349Q728 -399 779 -399Q822 -399 852 -378T891 -328Q894 -316 894 -307Q894 -299 892 -292T884 -279T872
-267T854 -257T832 -247T804 -237L772 -226L734 -214L692 -201L804 -2Q624 40 533 170T442 481Q442 607 485 740T612 997T809 1217T1075 1372T1396 1431Q1590 1431 1761 1355L1668 1214Q1493 1281 1348 1281Q1228 1281 1112 1234T906 1107T748 925T649 710Q623
618 623 537Q623 358 736 247T1057 136Q1211 136 1395 196L1411 70Q1176 -20 969 -20H941L879 -135L888 -138Q896 -140 902 -142T921 -148T942 -158L962 -172Q974 -179 982 -188T998 -209T1010 -236T1014 -268Q1014 -292 1007 -316Z" />
<glyph unicode="&#xc8;" glyph-name="Egrave" horiz-adv-x="1283" d="M1032 1929L1447 1619L1353 1511L926 1806L1032 1929ZM697 1421H1530L1487 1271H824L691 807H1299L1256 657H648L503 150H1166L1123 0H290L697 1421Z" />
<glyph unicode="&#xc9;" glyph-name="Eacute" horiz-adv-x="1283" d="M1505 1929L1540 1806L943 1511L912 1619L1505 1929ZM697 1421H1530L1487 1271H824L691 807H1299L1256 657H648L503 150H1166L1123 0H290L697 1421Z" />
<glyph unicode="&#xca;" glyph-name="Ecircumflex" horiz-adv-x="1283" d="M1274 1932L1448 1646L1329 1558L1210 1754L973 1559L907 1637L1274 1932ZM697 1421H1530L1487 1271H824L691 807H1299L1256 657H648L503 150H1166L1123 0H290L697 1421Z" />
<glyph unicode="&#xcb;" glyph-name="Edieresis" horiz-adv-x="1283" d="M1382 1898H1567L1514 1713H1329L1382 1898ZM934 1898H1119L1066 1713H881L934 1898ZM697 1421H1530L1487 1271H824L691 807H1299L1256 657H648L503 150H1166L1123 0H290L697 1421Z" />
<glyph unicode="&#xcc;" glyph-name="Igrave" horiz-adv-x="730" d="M760 1927L1175 1617L1081 1511L653 1804L760 1927ZM727 1421H897L490 0H320L727 1421Z" />
<glyph unicode="&#xcd;" glyph-name="Iacute" horiz-adv-x="730" d="M1108 1930L1143 1807L546 1511L516 1620L1108 1930ZM727 1421H897L490 0H320L727 1421Z" />
<glyph unicode="&#xce;" glyph-name="Icircumflex" horiz-adv-x="730" d="M944 1924L1118 1638L998 1550L880 1746L643 1551L577 1629L944 1924ZM727 1421H897L490 0H320L727 1421Z" />
<glyph unicode="&#xcf;" glyph-name="Idieresis" horiz-adv-x="670" d="M1000 1824H1185L1132 1639H947L1000 1824ZM611 1824H796L743 1639H558L611 1824ZM697 1421H867L460 0H290L697 1421Z" />
<glyph unicode="&#xd1;" glyph-name="Ntilde" horiz-adv-x="1659" d="M697 1421H912L1346 232L1686 1421H1856L1449 0H1234L802 1191L460 0H290L697 1421ZM1271 1876Q1315 1876 1351 1858T1410 1813T1452 1760T1493 1715T1537 1696Q1551 1696 1564 1701T1587 1712T1608
1732T1627 1755T1645 1785T1660 1814L1676 1848Q1687 1871 1691 1878L1794 1861L1776 1824L1758 1784Q1752 1773 1738 1747T1716 1708L1691 1673Q1675 1651 1662 1640L1632 1614Q1613 1599 1595 1592T1555 1580T1509 1574Q1465 1574 1429 1592T1370 1637T1328 1690T1287
1735T1243 1754Q1227 1754 1214 1749T1187 1732T1165 1709T1144 1678L1126 1645Q1120 1634 1108 1608L1091 1572L988 1589Q990 1593 1009 1634T1034 1686L1060 1732Q1080 1767 1091 1779L1125 1816Q1148 1840 1167 1849T1214 1867T1271 1876Z" />
<glyph unicode="&#xd2;" glyph-name="Ograve" horiz-adv-x="1686" d="M1291 1932L1706 1622L1612 1514L1185 1809L1291 1932ZM1579 709Q1611 822 1611 917Q1611 1010 1581 1083T1498 1199T1380 1265T1241 1287Q1171 1287 1098 1267T949 1202T808 1093T687 935T599
728Q566 611 566 514Q566 337 664 236T928 134Q999 134 1073 155T1224 221T1366 333T1489 496T1579 709ZM1296 1436Q1526 1436 1661 1311T1796 966Q1796 855 1759 727Q1663 396 1416 191Q1168 -15 873 -15Q769 -15 681 14T525 101T419 250T380 458Q380 573 418
707Q513 1037 758 1236T1296 1436Z" />
<glyph unicode="&#xd3;" glyph-name="Oacute" horiz-adv-x="1686" d="M1660 1930L1695 1807L1098 1511L1068 1620L1660 1930ZM1579 709Q1611 822 1611 917Q1611 1010 1581 1083T1498 1199T1380 1265T1241 1287Q1171 1287 1098 1267T949 1202T808 1093T687 935T599
728Q566 611 566 514Q566 337 664 236T928 134Q999 134 1073 155T1224 221T1366 333T1489 496T1579 709ZM1296 1436Q1526 1436 1661 1311T1796 966Q1796 855 1759 727Q1663 396 1416 191Q1168 -15 873 -15Q769 -15 681 14T525 101T419 250T380 458Q380 573 418
707Q513 1037 758 1236T1296 1436Z" />
<glyph unicode="&#xd4;" glyph-name="Ocircumflex" horiz-adv-x="1686" d="M1464 1924L1638 1638L1519 1550L1400 1746L1163 1551L1097 1629L1464 1924ZM1579 709Q1611 822 1611 917Q1611 1010 1581 1083T1498 1199T1380 1265T1241 1287Q1171 1287 1098 1267T949
1202T808 1093T687 935T599 728Q566 611 566 514Q566 337 664 236T928 134Q999 134 1073 155T1224 221T1366 333T1489 496T1579 709ZM1296 1436Q1526 1436 1661 1311T1796 966Q1796 855 1759 727Q1663 396 1416 191Q1168 -15 873 -15Q769 -15 681 14T525 101T419
250T380 458Q380 573 418 707Q513 1037 758 1236T1296 1436Z" />
<glyph unicode="&#xd5;" glyph-name="Otilde" horiz-adv-x="1686" d="M1296 1436Q1526 1436 1661 1311T1796 966Q1796 855 1759 727Q1663 396 1416 191Q1168 -15 873 -15Q769 -15 681 14T525 101T419 250T380 458Q380 573 418 707Q513 1037 758 1236T1296 1436ZM1579
709Q1611 822 1611 918Q1611 1099 1505 1193T1241 1287Q1171 1287 1098 1267T949 1202T808 1093T687 935T599 728Q566 611 566 514Q566 337 664 236T928 134Q999 134 1073 155T1224 221T1366 333T1489 496T1579 709ZM1708 1878L1811 1861L1794 1824L1774 1784Q1769
1773 1755 1747T1732 1708L1708 1673Q1692 1651 1680 1640L1648 1614Q1630 1599 1612 1592T1572 1580T1526 1574Q1482 1574 1446 1592T1387 1637T1345 1690T1304 1735T1260 1754Q1244 1754 1231 1749T1204 1732T1182 1709T1161 1678L1143 1645Q1137 1634 1124 1608L1108
1572L1005 1589Q1009 1598 1022 1625T1041 1665T1061 1703T1084 1742L1108 1777Q1123 1799 1136 1810L1167 1836Q1185 1851 1203 1858T1243 1870T1289 1876Q1333 1876 1369 1858T1428 1813T1470 1760T1511 1715T1555 1696Q1571 1696 1584 1701T1612 1719L1634 1741Q1643
1750 1655 1772T1673 1805L1692 1843Q1705 1871 1708 1878Z" />
<glyph unicode="&#xd6;" glyph-name="Odieresis" horiz-adv-x="1686" d="M1569 1898H1754L1701 1713H1516L1569 1898ZM1120 1898H1305L1252 1713H1067L1120 1898ZM1579 709Q1611 822 1611 917Q1611 1010 1581 1083T1498 1199T1380 1265T1241 1287Q1171 1287 1098
1267T949 1202T808 1093T687 935T599 728Q566 611 566 514Q566 337 664 236T928 134Q999 134 1073 155T1224 221T1366 333T1489 496T1579 709ZM1296 1436Q1526 1436 1661 1311T1796 966Q1796 855 1759 727Q1663 396 1416 191Q1168 -15 873 -15Q769 -15 681 14T525
101T419 250T380 458Q380 573 418 707Q513 1037 758 1236T1296 1436Z" />
<glyph unicode="&#xd8;" glyph-name="Oslash" horiz-adv-x="1756" d="M928 134Q999 134 1073 155T1224 221T1366 333T1489 496T1579 709Q1612 826 1612 919Q1612 981 1597 1038L615 302Q661 220 742 177T928 134ZM1566 1114Q1520 1198 1436 1242T1244 1287Q1153
1287 1059 1253T876 1154T713 978Q640 868 599 728Q566 615 566 513Q566 438 584 377L1566 1114ZM1296 1436Q1433 1436 1547 1386T1726 1233L1960 1409L2004 1344L1761 1162Q1795 1073 1795 966Q1795 851 1759 727Q1663 396 1416 191Q1168 -15 873 -15Q813 -15
758 -5T665 19T590 55T534 93T493 132T468 162L454 182L216 5L174 70L417 252Q380 341 380 457Q380 576 418 707Q513 1037 758 1236Q1004 1436 1296 1436Z" />
<glyph unicode="&#xd9;" glyph-name="Ugrave" horiz-adv-x="1580" d="M1177 1927L1592 1617L1498 1511L1070 1804L1177 1927ZM697 1421H867L603 500Q577 405 577 348Q577 127 866 127Q973 127 1056 156T1195 240T1285 357T1343 500L1607 1421H1777L1508 483Q1496
440 1490 423Q1482 399 1465 356T1429 282T1379 209T1312 137T1226 76T1116 25T981 -7T817 -20Q392 -20 392 280Q392 357 428 483L697 1421Z" />
<glyph unicode="&#xda;" glyph-name="Uacute" horiz-adv-x="1580" d="M1617 1930L1652 1807L1055 1511L1025 1620L1617 1930ZM697 1421H867L603 500Q577 405 577 348Q577 127 866 127Q973 127 1056 156T1195 240T1285 357T1343 500L1607 1421H1777L1508 483Q1496
440 1490 423Q1482 399 1465 356T1429 282T1379 209T1312 137T1226 76T1116 25T981 -7T817 -20Q392 -20 392 280Q392 357 428 483L697 1421Z" />
<glyph unicode="&#xdb;" glyph-name="Ucircumflex" horiz-adv-x="1580" d="M1396 1924L1570 1638L1450 1550L1332 1746L1095 1551L1029 1629L1396 1924ZM697 1421H867L603 500Q577 405 577 348Q577 127 866 127Q973 127 1056 156T1195 240T1285 357T1343 500L1607
1421H1777L1508 483Q1496 440 1490 423Q1482 399 1465 356T1429 282T1379 209T1312 137T1226 76T1116 25T981 -7T817 -20Q392 -20 392 280Q392 357 428 483L697 1421Z" />
<glyph unicode="&#xdc;" glyph-name="Udieresis" horiz-adv-x="1580" d="M1506 1898H1691L1638 1713H1453L1506 1898ZM1057 1898H1242L1189 1713H1004L1057 1898ZM697 1421H867L603 500Q577 405 577 348Q577 127 866 127Q973 127 1056 156T1195 240T1285 357T1343
500L1607 1421H1777L1508 483Q1496 440 1490 423Q1482 399 1465 356T1429 282T1379 209T1312 137T1226 76T1116 25T981 -7T817 -20Q392 -20 392 280Q392 357 428 483L697 1421Z" />
<glyph unicode="&#xdf;" glyph-name="germandbls" horiz-adv-x="1251" d="M996 1430Q1126 1430 1191 1359T1256 1186Q1256 1142 1244 1101Q1225 1036 1184 984T1096 899T1002 838T921 779T875 712Q871 699 871 684Q871 653 896 629T960 591T1043 557T1126 515T1190
452T1216 354Q1216 315 1201 261Q1192 227 1174 193Q1156 158 1122 118T1044 46T934 -5T789 -26Q645 -26 500 21L563 137Q711 106 793 106Q983 106 1027 258Q1034 282 1034 304Q1034 343 1009 372T947 416L866 451Q822 470 785 489T723 544T698 630Q698 662 710
705Q727 766 768 814T856 893L950 952Q996 980 1033 1015T1082 1091Q1089 1115 1089 1139Q1089 1202 1044 1242T936 1283Q917 1283 895 1279T836 1259T767 1216T703 1139T652 1022L359 0H195L488 1023Q513 1109 556 1179T652 1295T764 1372T882 1416T996 1430Z"
/>
<glyph unicode="&#xe0;" glyph-name="agrave" horiz-adv-x="1058" d="M879 1539L1139 1200L1029 1095L757 1425L879 1539ZM832 424H772Q716 424 675 422T576 411T480 386T406 339T360 264Q356 251 356 234Q356 182 403 146T524 109Q650 109 769 206L832 424ZM780
981Q941 981 1010 928T1080 775Q1080 717 1058 640L875 0H759L747 90Q597 -20 442 -20Q325 -20 255 41T184 194Q184 224 193 256Q213 327 260 379T369 463T515 514T682 540T867 547L889 623Q905 678 905 716Q905 846 715 846Q619 846 444 803L447 921Q623 981 780
981Z" />
<glyph unicode="&#xe1;" glyph-name="aacute" horiz-adv-x="1058" d="M780 981Q941 981 1010 928T1080 775Q1080 717 1058 640L875 0H759L747 90Q597 -20 442 -20Q325 -20 255 41T184 194Q184 224 193 256Q213 327 260 379T369 463T515 514T682 540T867 547L889
623Q905 678 905 716Q905 846 715 846Q619 846 444 803L447 921Q623 981 780 981ZM832 424H772Q716 424 675 422T576 411T480 386T406 339T360 264Q356 251 356 234Q356 182 403 146T524 109Q650 109 769 206L832 424ZM1107 1549L1165 1435L703 1106L655 1210L1107
1549Z" />
<glyph unicode="&#xe2;" glyph-name="acircumflex" horiz-adv-x="1058" d="M780 981Q941 981 1010 928T1080 775Q1080 717 1058 640L875 0H759L747 90Q597 -20 442 -20Q325 -20 255 41T184 194Q184 224 193 256Q213 327 260 379T369 463T515 514T682 540T867 547L889
623Q905 678 905 716Q905 846 715 846Q619 846 444 803L447 921Q623 981 780 981ZM832 424H772Q716 424 675 422T576 411T480 386T406 339T360 264Q356 251 356 234Q356 182 403 146T524 109Q650 109 769 206L832 424ZM962 1490L1127 1189L1008 1097L896 1303L660
1098L597 1180L962 1490Z" />
<glyph unicode="&#xe3;" glyph-name="atilde" horiz-adv-x="1057" d="M780 981Q941 981 1010 928T1080 775Q1080 717 1058 640L875 0H759L747 90Q597 -20 442 -20Q325 -20 255 41T184 194Q184 224 193 256Q213 327 260 379T369 463T515 514T682 540T867 547L889
623Q905 678 905 716Q905 846 715 846Q619 846 444 803L447 921Q623 981 780 981ZM832 424H772Q716 424 675 422T576 411T480 386T406 339T360 264Q356 251 356 234Q356 182 403 146T524 109Q650 109 769 206L832 424ZM1202 1444L1305 1427L1263 1340Q1218 1248
1176 1204Q1108 1132 1022 1132Q979 1132 944 1151T887 1198T845 1253T806 1300T763 1320Q751 1320 740 1317T719 1306T701 1291T684 1272L670 1252Q665 1243 658 1230L649 1212L641 1196Q636 1185 636 1184L612 1132L508 1147L550 1235L570 1276Q576 1289 601
1326T649 1384T710 1423T791 1442Q834 1442 869 1423T926 1376T966 1321T1006 1274T1049 1254Q1059 1254 1069 1257T1088 1265T1106 1278T1121 1294T1135 1312T1147 1330T1158 1349T1166 1366T1172 1380L1177 1390L1202 1444Z" />
<glyph unicode="&#xe4;" glyph-name="adieresis" horiz-adv-x="1062" d="M782 981Q944 981 1014 927T1085 774Q1085 717 1063 640L879 0H763L751 90Q601 -20 445 -20Q327 -20 256 42T184 195Q184 224 193 256Q213 327 260 379T370 463T517 514T685 540T871 547L893
623Q909 678 909 715Q909 846 717 846Q619 846 444 803L447 921Q624 981 782 981ZM836 424H776Q720 424 678 422T578 411T481 386T407 339T360 264Q356 251 356 234Q356 182 403 146T526 109Q653 109 773 206L836 424ZM663 1421H848L795 1235H610L663 1421ZM1106
1421H1291L1237 1235H1052L1106 1421Z" />
<glyph unicode="&#xe5;" glyph-name="aring" horiz-adv-x="1061" d="M782 981Q943 981 1013 927T1084 774Q1084 717 1062 640L878 0H762L750 90Q600 -20 444 -20Q326 -20 255 41T184 194Q184 224 193 256Q213 327 260 379T369 463T516 514T684 540T870 547L892
623Q908 679 908 716Q908 846 717 846Q619 846 444 803L447 921Q624 981 782 981ZM835 424H775Q719 424 677 422T578 411T481 386T407 339T360 264Q356 251 356 234Q356 182 403 146T525 109Q652 109 772 206L835 424ZM994 1573Q1065 1573 1109 1527T1154 1408Q1154
1374 1144 1340Q1116 1243 1033 1175T861 1107Q790 1107 746 1153T701 1271Q701 1306 711 1340Q739 1436 822 1504T994 1573ZM969 1482Q915 1482 867 1440T801 1340Q795 1318 795 1296Q795 1253 819 1226T887 1198Q940 1198 988 1241T1052 1340Q1058 1362 1058
1383Q1058 1426 1034 1454T969 1482Z" />
<glyph unicode="&#xe6;" glyph-name="ae" horiz-adv-x="1650" d="M447 919Q628 981 794 981Q910 981 975 936T1054 809Q1140 887 1245 934T1452 981Q1691 981 1691 727Q1691 611 1638 423H996Q984 381 984 343Q984 241 1060 177T1263 112Q1338 112 1475 147L1470
36Q1305 -20 1163 -20Q1056 -20 971 17T844 130Q687 -20 459 -20Q342 -20 264 41T185 197Q185 227 194 260Q225 370 338 446Q449 522 628 540Q720 549 867 549L882 598Q896 645 896 690Q896 845 713 845Q620 845 454 803L447 919ZM1383 839Q1265 839 1170 753T1040
547H1516Q1537 621 1537 677Q1537 839 1383 839ZM360 268Q356 255 356 238Q356 184 406 148T529 111Q654 111 768 203L831 423Q660 423 557 403T415 351T360 268Z" />
<glyph unicode="&#xe7;" glyph-name="ccedilla" horiz-adv-x="988" d="M573 -326Q576 -314 576 -304Q576 -293 572 -284T558 -266T539 -252T509 -238L475 -226L433 -212L387 -196L483 -20Q370 -2 299 67T227 270Q227 350 256 452Q289 566 342 657T458 806T594
903T736 958T877 974Q1017 974 1133 915L1060 797Q963 833 858 833Q807 833 760 824T661 791T566 729T486 628Q448 566 425 486Q401 403 401 334Q401 270 423 225T484 155T567 119T667 108Q757 108 861 140L868 28Q727 -21 604 -26L545 -136Q546 -136 559 -140T577
-146T596 -154T617 -164T637 -177T656 -194L670 -214Q677 -225 680 -238T683 -268Q683 -290 676 -315Q655 -386 585 -442T423 -498Q402 -498 379 -495T330 -484L288 -472Q273 -468 246 -458T214 -447L266 -356Q406 -403 453 -403Q498 -403 531 -381T573 -326Z"
/>
<glyph unicode="&#xe8;" glyph-name="egrave" horiz-adv-x="1088" d="M897 1549L1155 1210L1047 1106L774 1435L897 1549ZM801 840Q675 840 578 747T445 529H948Q973 616 973 677Q973 840 801 840ZM876 982Q1143 982 1143 746Q1143 655 1094 481L1072 405H406Q396
368 396 338Q396 243 469 177T684 111Q783 111 914 146L912 35Q738 -20 585 -20Q505 -20 443 -5T342 37T276 102T240 183T229 275Q229 357 256 450Q296 586 366 690Q436 795 521 857T697 950T876 982Z" />
<glyph unicode="&#xe9;" glyph-name="eacute" horiz-adv-x="1088" d="M1205 1549L1263 1435L801 1106L753 1210L1205 1549ZM801 840Q675 840 578 747T445 529H948Q973 616 973 677Q973 840 801 840ZM876 982Q1143 982 1143 746Q1143 655 1094 481L1072 405H406Q396
368 396 338Q396 243 469 177T684 111Q783 111 914 146L912 35Q738 -20 585 -20Q505 -20 443 -5T342 37T276 102T240 183T229 275Q229 357 256 450Q296 586 366 690Q436 795 521 857T697 950T876 982Z" />
<glyph unicode="&#xea;" glyph-name="ecircumflex" horiz-adv-x="1088" d="M1047 1490L1212 1189L1093 1097L980 1303L745 1098L683 1180L1047 1490ZM801 840Q675 840 578 747T445 529H948Q973 616 973 677Q973 840 801 840ZM876 982Q1143 982 1143 746Q1143 655
1094 481L1072 405H406Q396 368 396 338Q396 243 469 177T684 111Q783 111 914 146L912 35Q738 -20 585 -20Q505 -20 443 -5T342 37T276 102T240 183T229 275Q229 357 256 450Q296 586 366 690Q436 795 521 857T697 950T876 982Z" />
<glyph unicode="&#xeb;" glyph-name="edieresis" horiz-adv-x="1095" d="M1142 1421H1327L1273 1235H1088L1142 1421ZM699 1421H884L831 1235H646L699 1421ZM804 840Q676 840 578 747T443 529H955Q979 611 979 675Q979 840 804 840ZM880 982Q1149 982 1149 746Q1149
655 1100 481L1078 405H408Q398 368 398 338Q398 243 472 177T688 111Q788 111 921 146L918 35Q742 -20 589 -20Q489 -20 417 3T305 68T247 162T229 276Q229 359 256 450Q287 559 340 648T456 799T592 902T737 963T880 982Z" />
<glyph unicode="&#xec;" glyph-name="igrave" horiz-adv-x="516" d="M534 1549L800 1225L693 1125L413 1440L534 1549ZM459 988H623L340 0H176L459 988Z" />
<glyph unicode="&#xed;" glyph-name="iacute" horiz-adv-x="516" d="M912 1549L971 1440L510 1125L460 1225L912 1549ZM459 988H623L340 0H176L459 988Z" />
<glyph unicode="&#xee;" glyph-name="icircumflex" horiz-adv-x="522" d="M691 1490L831 1204L715 1116L624 1302L422 1117L359 1195L691 1490ZM459 988H623L340 0H176L459 988Z" />
<glyph unicode="&#xef;" glyph-name="idieresis" horiz-adv-x="523" d="M761 1421H946L893 1236H708L761 1421ZM392 1421H577L524 1236H339L392 1421ZM463 988H627L344 0H180L463 988Z" />
<glyph unicode="&#xf1;" glyph-name="ntilde" horiz-adv-x="1164" d="M1286 1449L1389 1432L1347 1344Q1302 1252 1260 1208Q1192 1136 1106 1136Q1063 1136 1028 1155T971 1202T929 1257T890 1304T847 1324Q835 1324 824 1321T804 1310T786 1295T769 1276L755
1256Q749 1248 743 1236T734 1217T726 1200T721 1189L696 1136L593 1152L635 1240L655 1280Q661 1293 686 1330T733 1388T794 1427T875 1446Q918 1446 953 1427T1010 1380T1050 1325T1089 1278T1132 1258Q1142 1258 1152 1261T1171 1270T1189 1283T1204 1298T1218
1317T1230 1335T1240 1354T1248 1370T1255 1385T1260 1395L1286 1449ZM452 963H567L579 879Q796 983 950 983Q1181 983 1181 779Q1181 700 1145 575L980 0H815L982 583Q1001 651 1001 693Q1001 835 836 835Q722 835 558 761L340 0H176L452 963Z" />
<glyph unicode="&#xf2;" glyph-name="ograve" horiz-adv-x="1195" d="M881 982Q1041 982 1136 900T1231 665Q1231 589 1206 501Q1137 262 963 121T578 -20Q419 -20 328 64T236 300Q236 381 262 471Q329 705 499 844Q669 982 881 982ZM828 842Q752 842 675 805T529
687T430 498Q410 427 410 366Q410 256 469 188T636 120Q764 120 878 217Q991 313 1036 469Q1056 539 1056 600Q1056 715 991 778T828 842ZM964 1549L1222 1210L1114 1106L842 1435L964 1549Z" />
<glyph unicode="&#xf3;" glyph-name="oacute" horiz-adv-x="1195" d="M1137 1549L1194 1435L732 1106L684 1210L1137 1549ZM828 842Q752 842 675 805T529 687T430 498Q410 427 410 366Q410 256 469 188T636 120Q764 120 878 217Q991 313 1036 469Q1056 539 1056
600Q1056 715 991 778T828 842ZM881 982Q1041 982 1136 900T1231 665Q1231 589 1206 501Q1137 262 963 121T578 -20Q419 -20 328 64T236 300Q236 381 262 471Q329 705 499 844Q669 982 881 982Z" />
<glyph unicode="&#xf4;" glyph-name="ocircumflex" horiz-adv-x="1195" d="M1040 1490L1203 1189L1087 1097L974 1303L738 1098L676 1180L1040 1490ZM828 842Q752 842 675 805T529 687T430 498Q410 427 410 366Q410 256 469 188T636 120Q764 120 878 217Q991 313
1036 469Q1056 539 1056 600Q1056 715 991 778T828 842ZM881 982Q1041 982 1136 900T1231 665Q1231 589 1206 501Q1137 262 963 121T578 -20Q419 -20 328 64T236 300Q236 381 262 471Q329 705 499 844Q669 982 881 982Z" />
<glyph unicode="&#xf5;" glyph-name="otilde" horiz-adv-x="1198" d="M883 982Q1043 982 1138 899T1234 664Q1234 589 1209 501Q1140 262 966 121T580 -20Q420 -20 328 64T236 301Q236 381 262 471Q329 704 500 843Q670 982 883 982ZM829 842Q752 842 675 805T529
687T430 498Q410 427 410 367Q410 256 470 188T638 120Q767 120 881 216Q994 312 1039 469Q1059 539 1059 599Q1059 714 993 778T829 842ZM1266 1448L1369 1431Q1366 1424 1347 1384L1322 1332Q1316 1319 1297 1285T1265 1236L1231 1198Q1209 1174 1190 1164T1143
1145T1087 1136Q1044 1136 1009 1155T952 1202T911 1257T872 1304T829 1324Q816 1324 803 1319T781 1307T760 1287T741 1263T724 1232L708 1202Q703 1191 692 1168L678 1136L574 1151Q577 1158 596 1198L621 1250Q627 1263 646 1297T678 1346L712 1384Q734 1408
753 1418T800 1437T856 1446Q899 1446 934 1427T991 1380T1032 1325T1071 1278T1114 1258Q1129 1258 1142 1263T1169 1281T1191 1305T1212 1338L1230 1372Q1236 1382 1249 1411T1266 1448Z" />
<glyph unicode="&#xf6;" glyph-name="odieresis" horiz-adv-x="1203" d="M1165 1421H1350L1297 1235H1112L1165 1421ZM722 1421H907L854 1235H669L722 1421ZM832 842Q755 842 677 805T530 687T430 498Q410 427 410 367Q410 256 470 188T640 120Q770 120 885 217T1045
469Q1065 541 1065 598Q1065 714 998 778T832 842ZM886 982Q1048 982 1143 899T1239 664Q1239 589 1214 501Q1145 262 970 121T582 -20Q421 -20 329 64T236 301Q236 381 262 471Q329 705 500 844Q672 982 886 982Z" />
<glyph unicode="&#xf7;" glyph-name="divide" horiz-adv-x="1400" d="M333 727H1483L1444 588H294L333 727ZM682 278H877L821 83H626L682 278ZM956 1233H1151L1095 1038H900L956 1233Z" />
<glyph unicode="&#xf8;" glyph-name="oslash" horiz-adv-x="1194" d="M1046 683L449 214Q509 120 636 120Q727 120 808 166T942 284T1026 440T1057 601Q1057 644 1046 683ZM828 842Q740 842 661 798T527 684T442 530T410 366Q410 316 421 278L1017 747Q955 842
828 842ZM1300 970L1342 914L1201 804Q1230 741 1230 660Q1230 586 1205 499Q1137 261 964 120Q791 -20 580 -20Q392 -20 303 97L160 -15L119 41L266 157Q236 225 236 306Q236 384 262 473Q330 707 499 844Q669 982 880 982Q1073 982 1165 863L1300 970Z" />
<glyph unicode="&#xf9;" glyph-name="ugrave" horiz-adv-x="1164" d="M913 1549L1176 1225L1069 1125L792 1440L913 1549ZM1100 988H1264L980 0H865L854 83Q639 -20 482 -20Q253 -20 253 186Q253 269 290 398L459 988H623L450 386Q431 320 431 273Q431 127 595
127Q709 127 875 204L1100 988Z" />
<glyph unicode="&#xfa;" glyph-name="uacute" horiz-adv-x="1164" d="M1195 1549L1254 1440L797 1125L747 1225L1195 1549ZM1100 988H1264L980 0H865L854 83Q639 -20 482 -20Q253 -20 253 186Q253 269 290 398L459 988H623L450 386Q431 320 431 273Q431 127 595
127Q709 127 875 204L1100 988Z" />
<glyph unicode="&#xfb;" glyph-name="ucircumflex" horiz-adv-x="1164" d="M1027 1490L1196 1204L1079 1116L963 1312L731 1117L667 1195L1027 1490ZM1100 988H1264L980 0H865L854 83Q639 -20 482 -20Q253 -20 253 186Q253 269 290 398L459 988H623L450 386Q431
320 431 273Q431 127 595 127Q709 127 875 204L1100 988Z" />
<glyph unicode="&#xfc;" glyph-name="udieresis" horiz-adv-x="1170" d="M1120 1421H1305L1252 1235H1067L1120 1421ZM679 1421H864L811 1235H626L679 1421ZM1105 988H1269L986 0H871L860 83Q643 -20 485 -20Q253 -20 253 187Q253 267 290 398L459 988H623L450
386Q431 320 431 274Q431 127 598 127Q712 127 880 204L1105 988Z" />
<glyph unicode="&#xff;" glyph-name="ydieresis" horiz-adv-x="1043" d="M1070 1421H1255L1202 1235H1017L1070 1421ZM627 1421H812L759 1235H574L627 1421ZM332 988H502L575 150L1106 988H1276L276 -531H101L445 -38L332 988Z" />
<glyph unicode="&#x131;" glyph-name="dotlessi" horiz-adv-x="524" d="M456 963H620L344 0H180L456 963Z" />
<glyph unicode="&#x152;" glyph-name="OE" horiz-adv-x="1998" d="M742 1224Q809 1278 886 1316Q964 1355 1030 1375T1182 1405T1325 1418T1469 1421H2245L2202 1271H1584L1451 807H2014L1971 657H1408L1263 150H1881L1838 0H973Q851 0 760 11T596 58Q376 165
376 443Q376 561 417 703Q514 1041 742 1224ZM1414 1271H1357Q1233 1271 1167 1261Q958 1229 806 1082Q653 933 586 701Q556 597 556 509Q556 295 722 199Q776 168 830 159Q886 150 967 150H1093L1414 1271Z" />
<glyph unicode="&#x153;" glyph-name="oe" horiz-adv-x="1776" d="M1576 972Q1828 972 1828 740Q1828 642 1778 470L1756 395H1118Q1109 362 1109 328Q1109 236 1177 172T1385 108Q1473 108 1600 143L1595 32Q1436 -23 1285 -23Q1024 -23 965 158Q792 -20 559
-20Q405 -20 320 62T235 293Q235 377 263 474Q329 705 492 841Q656 977 863 977Q986 977 1063 927T1167 783Q1223 843 1285 883T1404 941T1500 965T1576 972ZM1501 831Q1381 831 1288 739T1157 519H1635Q1661 612 1661 673Q1661 831 1501 831ZM617 118Q700 118
775 164T901 282T980 439T1009 604Q1009 707 959 772T807 837Q682 837 576 739T427 489Q407 422 407 355Q407 248 462 183T617 118Z" />
<glyph unicode="&#x178;" glyph-name="Ydieresis" horiz-adv-x="1263" d="M887 1898H1072L1019 1713H834L887 1898ZM1337 1898H1522L1469 1713H1284L1337 1898ZM507 1421H708L902 834L1440 1421H1630L932 673L739 0H569L762 673L507 1421Z" />
<glyph unicode="&#x192;" glyph-name="florin" horiz-adv-x="801" d="M382 963H547L580 1076Q618 1207 676 1278Q736 1351 821 1390Q907 1429 1005 1429Q1111 1429 1228 1390L1168 1266Q1087 1292 1020 1292Q807 1292 742 1065L713 963H1036L999 834H676L373 -223Q366
-249 359 -270T335 -325T298 -387T246 -444T175 -494T81 -527T-38 -541Q-143 -541 -260 -502L-201 -380Q-117 -404 -53 -404Q6 -404 52 -388T125 -352T171 -299T199 -248T213 -203L510 834H345L382 963Z" />
<glyph unicode="&#x2c6;" glyph-name="circumflex" horiz-adv-x="1479" d="M1167 1541L1341 1255L1223 1167L1103 1363L866 1168L800 1246L1167 1541Z" />
<glyph unicode="&#x2c7;" glyph-name="caron" horiz-adv-x="1078" d="M841 1124L667 1410L786 1498L905 1302L1142 1497L1208 1421L841 1124Z" />
<glyph unicode="&#x2d8;" glyph-name="breve" horiz-adv-x="1078" d="M543 1382L685 1448Q692 1414 705 1384T741 1325T801 1279T884 1261Q965 1261 1058 1315T1233 1448L1323 1371Q1212 1264 1080 1194T828 1123Q760 1123 706 1145T619 1205T566 1288T543 1382Z" />
<glyph unicode="&#x2d9;" glyph-name="dotaccent" horiz-adv-x="1200" d="M898 1442H1108L1048 1232H838L898 1442Z" />
<glyph unicode="&#x2da;" glyph-name="ring" horiz-adv-x="1084" d="M1031 1573Q1104 1573 1150 1528T1196 1411Q1196 1382 1187 1349Q1160 1256 1077 1190T903 1124Q830 1124 785 1169T739 1286Q739 1316 748 1349Q775 1442 858 1507T1031 1573ZM1006 1482Q951
1482 902 1443T838 1349Q832 1330 832 1310Q832 1269 857 1242T929 1215Q983 1215 1031 1255T1095 1349Q1101 1368 1101 1387Q1101 1428 1076 1455T1006 1482Z" />
<glyph unicode="&#x2db;" glyph-name="ogonek" horiz-adv-x="1084" d="M506 -544Q434 -544 394 -506T354 -403Q354 -369 364 -335Q407 -188 574 -48Q741 94 939 144L936 32Q779 -20 661 -118T517 -302Q512 -318 512 -338Q512 -373 533 -392T593 -412Q654 -412
773 -352L795 -442Q623 -544 506 -544Z" />
<glyph unicode="&#x2dc;" glyph-name="tilde" horiz-adv-x="1400" d="M1270 1361Q1285 1361 1299 1365T1328 1381T1354 1401T1382 1431L1409 1464L1440 1502L1471 1543L1563 1496Q1558 1489 1536 1460T1504 1420L1474 1382Q1452 1356 1439 1344L1404 1312Q1383
1291 1366 1281T1326 1260T1281 1244T1235 1239Q1191 1239 1156 1257T1099 1303T1057 1357T1015 1402T967 1421Q950 1421 932 1413T901 1396T868 1365T838 1330L802 1284L766 1237L674 1284Q679 1290 706 1324L741 1370Q750 1382 775 1412T816 1454L856 1488Q882
1510 902 1519T949 1535T1002 1543Q1046 1543 1081 1525T1138 1479T1180 1425T1222 1380T1270 1361Z" />
<glyph unicode="&#x2dd;" glyph-name="hungarumlaut" horiz-adv-x="1652" d="M1219 1603L1265 1487L684 1148L642 1250L1219 1603ZM1739 1603L1785 1487L1204 1148L1162 1250L1739 1603Z" />
<glyph unicode="&#x2013;" glyph-name="endash" horiz-adv-x="1159" d="M209 728H1368L1328 589H169L209 728Z" />
<glyph unicode="&#x2014;" glyph-name="emdash" horiz-adv-x="1384" d="M209 728H1593L1553 589H169L209 728Z" />
<glyph unicode="&#x2018;" glyph-name="quoteleft" horiz-adv-x="450" d="M523 1511H718L719 1078H524L523 1511Z" />
<glyph unicode="&#x2019;" glyph-name="quoteright" horiz-adv-x="450" d="M598 1511H793L544 1078H349L598 1511Z" />
<glyph unicode="&#x201a;" glyph-name="quotesinglbase" horiz-adv-x="450" d="M227 217H422L173 -216H-22L227 217Z" />
<glyph unicode="&#x201c;" glyph-name="quotedblleft" horiz-adv-x="830" d="M793 1511L544 1078H349L598 1511H793ZM1173 1511L924 1078H729L978 1511H1173Z" />
<glyph unicode="&#x201d;" glyph-name="quotedblright" horiz-adv-x="830" d="M598 1511H793L544 1078H349L598 1511ZM978 1511H1173L924 1078H729L978 1511Z" />
<glyph unicode="&#x201e;" glyph-name="quotedblbase" horiz-adv-x="830" d="M226 214H421L172 -219H-23L226 214ZM606 214H801L552 -219H357L606 214Z" />
<glyph unicode="&#x2020;" glyph-name="dagger" horiz-adv-x="942" d="M441 148L736 1176L504 1166L536 1276L762 1266L832 1511H975L905 1266L1138 1276L1106 1166L879 1176L584 148H441Z" />
<glyph unicode="&#x2021;" glyph-name="daggerdbl" horiz-adv-x="942" d="M426 95L736 1176L504 1166L536 1276L762 1266L832 1511H975L905 1266L1138 1276L1106 1166L879 1176L569 95L802 105L771 -5L543 5L473 -240H330L400 5L169 -5L200 105L426 95Z" />
<glyph unicode="&#x2022;" glyph-name="bullet" horiz-adv-x="640" d="M437 863H697L623 603H363L437 863Z" />
<glyph unicode="&#x2026;" glyph-name="ellipsis" horiz-adv-x="1720" d="M1370 210H1580L1520 0H1310L1370 210ZM805 210H1015L955 0H745L805 210ZM240 210H450L390 0H180L240 210Z" />
<glyph unicode="&#x2030;" glyph-name="perthousand" horiz-adv-x="1920" d="M690 1268Q666 1268 643 1260T594 1234T546 1180T510 1094Q494 1039 494 1000Q494 944 520 922T585 900Q609 900 632 908T680 935T730 994Q753 1032 769 1089Q783 1137 783 1173Q783
1268 690 1268ZM718 1363Q747 1363 773 1357T826 1335T869 1286T885 1206Q885 1154 867 1092Q829 959 742 882Q656 806 557 806Q483 806 437 844T391 968Q391 1023 411 1093Q436 1181 488 1244T599 1335T718 1363ZM1125 527Q1101 527 1078 519T1029 493T981 438Q959
404 945 353Q930 300 930 259Q930 203 956 181T1021 159Q1045 159 1068 167T1116 194T1166 253Q1189 291 1205 348Q1219 396 1219 431Q1219 484 1192 505T1125 527ZM1154 623Q1183 623 1209 617T1263 594T1306 545T1322 464Q1322 413 1304 351Q1265 218 1179 142Q1092
66 993 66Q919 66 874 104T828 227Q828 282 848 352Q885 482 973 552T1154 623ZM1732 527Q1708 527 1685 519T1636 493T1588 438Q1566 404 1552 353Q1537 300 1537 259Q1537 203 1563 181T1628 159Q1652 159 1675 167T1723 194T1772 253Q1796 291 1812 348Q1826
396 1826 431Q1826 484 1799 505T1732 527ZM1761 623Q1790 623 1816 617T1870 594T1913 545T1929 464Q1929 413 1911 351Q1872 218 1786 142Q1699 66 1600 66Q1526 66 1481 104T1435 227Q1435 282 1455 352Q1492 482 1580 552T1761 623ZM1461 1421H1631L255 0H85L1461
1421Z" />
<glyph unicode="&#x2039;" glyph-name="guilsinglleft" horiz-adv-x="565" d="M612 988H798L420 623L589 258H404L254 623L612 988Z" />
<glyph unicode="&#x203a;" glyph-name="guilsinglright" horiz-adv-x="565" d="M333 988H518L669 623L310 258H124L503 623L333 988Z" />
<glyph unicode="&#x2044;" glyph-name="fraction" horiz-adv-x="1036" d="M1248 1421H1423L196 0H20L1248 1421Z" />
<glyph unicode="&#x20ac;" glyph-name="Euro" horiz-adv-x="1335" d="M417 504H195L232 634H436Q437 636 442 661T454 709T473 772T504 848H357L394 978H570Q695 1187 888 1309T1300 1431Q1473 1431 1627 1355L1539 1214Q1383 1281 1254 1281Q1108 1281 972 1199T737
978H1188L1151 848H660Q609 746 590 634H1026L989 504H581Q587 341 683 239T957 136Q1095 136 1264 196L1275 70Q1063 -20 874 -20Q656 -20 536 108T415 452Q415 468 417 504Z" />
<glyph unicode="&#x2122;" glyph-name="trademark" horiz-adv-x="1424" d="M1123 1511H1239L1320 1194L1577 1511H1697L1534 943H1436L1564 1389L1320 1095H1252L1187 1393L1058 943H960L1123 1511ZM653 943H555L695 1431H520L543 1511H991L968 1431H793L653 943Z" />
<glyph unicode="&#xfb01;" glyph-name="uniFB01" horiz-adv-x="1344" d="M1283 988H1447L1164 0H1000L1283 988ZM1392 1421H1586L1532 1232H1338L1392 1421ZM1020 1292Q962 1292 915 1275T841 1234T791 1177T761 1123T746 1079L713 963H1036L999 834H676L381 -196Q344
-325 287 -391Q229 -458 145 -494T-39 -531Q-147 -531 -261 -493L-202 -373Q-122 -396 -55 -396Q3 -396 49 -380T123 -343T171 -292T199 -243T213 -203L510 834H371L408 963H547L578 1069Q618 1207 676 1278Q736 1351 821 1390Q907 1429 1005 1429Q1110 1429 1227
1390L1167 1266Q1086 1292 1020 1292Z" />
<glyph unicode="&#xfb02;" glyph-name="uniFB02" horiz-adv-x="1384" d="M1453 1511H1617L1184 0H1020L1453 1511ZM1020 1292Q962 1292 915 1275T841 1234T791 1177T761 1123T746 1079L713 963H1036L999 834H676L381 -196Q344 -325 287 -391Q229 -458 145 -494T-39
-531Q-147 -531 -261 -493L-202 -373Q-122 -396 -55 -396Q3 -396 49 -380T123 -343T171 -292T199 -243T213 -203L510 834H371L408 963H547L578 1069Q618 1207 676 1278Q736 1351 821 1390Q907 1429 1005 1429Q1110 1429 1227 1390L1167 1266Q1086 1292 1020 1292Z"
/>
</font>
</defs>
</svg>
